{
    "asset" : {
        "generator" : "Khronos glTF Blender I/O v1.1.45",
        "version" : "2.0"
    },
    "scene" : 0,
    "scenes" : [
        {
            "name" : "Scene",
            "nodes" : [
                0,
                1,
                2
            ]
        }
    ],
    "nodes" : [
        {
            "mesh" : 0,
            "name" : "placket_Narrow_Hole",
            "rotation" : [
                0.7071068286895752,
                0,
                0,
                0.7071067094802856
            ],
            "translation" : [
                -0.023709677159786224,
                0.0026102066040039062,
                1.2146507501602173
            ]
        },
        {
            "mesh" : 1,
            "name" : "placket_Narrow_Btn",
            "rotation" : [
                0.7071068286895752,
                0,
                0,
                0.7071067094802856
            ],
            "translation" : [
                -0.022970255464315414,
                0.00319671630859375,
                1.2179971933364868
            ]
        },
        {
            "mesh" : 2,
            "name" : "placket_Narrow",
            "rotation" : [
                0.7071068286895752,
                0,
                0,
                0.7071067094802856
            ],
            "translation" : [
                -0.026478007435798645,
                -0.10680961608886719,
                1.1591523885726929
            ]
        }
    ],
    "materials" : [
        {
            "doubleSided" : true,
            "emissiveFactor" : [
                0,
                0,
                0
            ],
            "name" : "Default OBJ.076",
            "pbrMetallicRoughness" : {
                "baseColorFactor" : [
                    0.800000011920929,
                    0.800000011920929,
                    0.800000011920929,
                    1
                ],
                "metallicFactor" : 0,
                "roughnessFactor" : 0.5
            }
        },
        {
            "doubleSided" : true,
            "emissiveFactor" : [
                0,
                0,
                0
            ],
            "name" : "Default OBJ.077",
            "pbrMetallicRoughness" : {
                "baseColorFactor" : [
                    0.800000011920929,
                    0.800000011920929,
                    0.800000011920929,
                    1
                ],
                "metallicFactor" : 0,
                "roughnessFactor" : 0.5
            }
        },
        {
            "doubleSided" : true,
            "emissiveFactor" : [
                0,
                0,
                0
            ],
            "name" : "Default OBJ.078",
            "pbrMetallicRoughness" : {
                "baseColorFactor" : [
                    0.800000011920929,
                    0.800000011920929,
                    0.800000011920929,
                    1
                ],
                "metallicFactor" : 0,
                "roughnessFactor" : 0.5
            }
        }
    ],
    "meshes" : [
        {
            "name" : "placket_Narrow_Hole.002",
            "primitives" : [
                {
                    "attributes" : {
                        "POSITION" : 0,
                        "NORMAL" : 1
                    },
                    "indices" : 2,
                    "material" : 0
                }
            ]
        },
        {
            "name" : "placket_Narrow_Btn.001",
            "primitives" : [
                {
                    "attributes" : {
                        "POSITION" : 3,
                        "NORMAL" : 4
                    },
                    "indices" : 5,
                    "material" : 1
                }
            ]
        },
        {
            "name" : "placket_Narrow",
            "primitives" : [
                {
                    "attributes" : {
                        "POSITION" : 6,
                        "NORMAL" : 7,
                        "TEXCOORD_0" : 8
                    },
                    "indices" : 9,
                    "material" : 2
                }
            ]
        }
    ],
    "accessors" : [
        {
            "bufferView" : 0,
            "componentType" : 5126,
            "count" : 3808,
            "max" : [
                0.03386056050658226,
                0.10253894329071045,
                2.3764705657958984
            ],
            "min" : [
                -0.04566089063882828,
                -0.33779776096343994,
                -2.3143959045410156
            ],
            "type" : "VEC3"
        },
        {
            "bufferView" : 1,
            "componentType" : 5126,
            "count" : 3808,
            "type" : "VEC3"
        },
        {
            "bufferView" : 2,
            "componentType" : 5123,
            "count" : 16464,
            "type" : "SCALAR"
        },
        {
            "bufferView" : 3,
            "componentType" : 5126,
            "count" : 10113,
            "max" : [
                0.06359932571649551,
                0.0983421802520752,
                2.351175308227539
            ],
            "min" : [
                -0.07295237481594086,
                -0.3248862624168396,
                -2.292461395263672
            ],
            "type" : "VEC3"
        },
        {
            "bufferView" : 4,
            "componentType" : 5126,
            "count" : 10113,
            "type" : "VEC3"
        },
        {
            "bufferView" : 5,
            "componentType" : 5123,
            "count" : 60924,
            "type" : "SCALAR"
        },
        {
            "bufferView" : 6,
            "componentType" : 5126,
            "count" : 12424,
            "max" : [
                0.3080368638038635,
                0.14785408973693848,
                3.0304651260375977
            ],
            "min" : [
                -0.32470399141311646,
                -0.4136900305747986,
                -2.9453201293945312
            ],
            "type" : "VEC3"
        },
        {
            "bufferView" : 7,
            "componentType" : 5126,
            "count" : 12424,
            "type" : "VEC3"
        },
        {
            "bufferView" : 8,
            "componentType" : 5126,
            "count" : 12424,
            "type" : "VEC2"
        },
        {
            "bufferView" : 9,
            "componentType" : 5123,
            "count" : 67086,
            "type" : "SCALAR"
        }
    ],
    "bufferViews" : [
        {
            "buffer" : 0,
            "byteLength" : 45696,
            "byteOffset" : 0
        },
        {
            "buffer" : 0,
            "byteLength" : 45696,
            "byteOffset" : 45696
        },
        {
            "buffer" : 0,
            "byteLength" : 32928,
            "byteOffset" : 91392
        },
        {
            "buffer" : 0,
            "byteLength" : 121356,
            "byteOffset" : 124320
        },
        {
            "buffer" : 0,
            "byteLength" : 121356,
            "byteOffset" : 245676
        },
        {
            "buffer" : 0,
            "byteLength" : 121848,
            "byteOffset" : 367032
        },
        {
            "buffer" : 0,
            "byteLength" : 149088,
            "byteOffset" : 488880
        },
        {
            "buffer" : 0,
            "byteLength" : 149088,
            "byteOffset" : 637968
        },
        {
            "buffer" : 0,
            "byteLength" : 99392,
            "byteOffset" : 787056
        },
        {
            "buffer" : 0,
            "byteLength" : 134172,
            "byteOffset" : 886448
        }
    ],
    "buffers" : [
        {
            "byteLength" : 1020620,
            "uri" : "placket_Narrow.bin"
        }
    ]
}
