{
    "asset" : {
        "generator" : "Khronos glTF Blender I/O v1.1.45",
        "version" : "2.0"
    },
    "scene" : 0,
    "scenes" : [
        {
            "name" : "Scene",
            "nodes" : [
                0
            ]
        }
    ],
    "nodes" : [
        {
            "mesh" : 0,
            "name" : "sleeve_Short",
            "rotation" : [
                0.7071068286895752,
                0,
                0,
                0.7071067094802856
            ],
            "translation" : [
                -0.09105757623910904,
                0.8893613815307617,
                -0.41007474064826965
            ]
        }
    ],
    "materials" : [
        {
            "doubleSided" : true,
            "name" : "Shirt",
            "pbrMetallicRoughness" : {}
        }
    ],
    "meshes" : [
        {
            "name" : "sleeve_Short",
            "primitives" : [
                {
                    "attributes" : {
                        "POSITION" : 0,
                        "NORMAL" : 1,
                        "TEXCOORD_0" : 2
                    },
                    "indices" : 3,
                    "material" : 0
                }
            ]
        }
    ],
    "accessors" : [
        {
            "bufferView" : 0,
            "componentType" : 5126,
            "count" : 9133,
            "max" : [
                2.773077964782715,
                0.7736161947250366,
                0.8507890701293945
            ],
            "min" : [
                -2.8144800662994385,
                -0.7275032997131348,
                -1.6092529296875
            ],
            "type" : "VEC3"
        },
        {
            "bufferView" : 1,
            "componentType" : 5126,
            "count" : 9133,
            "type" : "VEC3"
        },
        {
            "bufferView" : 2,
            "componentType" : 5126,
            "count" : 9133,
            "type" : "VEC2"
        },
        {
            "bufferView" : 3,
            "componentType" : 5123,
            "count" : 46443,
            "type" : "SCALAR"
        }
    ],
    "bufferViews" : [
        {
            "buffer" : 0,
            "byteLength" : 109596,
            "byteOffset" : 0
        },
        {
            "buffer" : 0,
            "byteLength" : 109596,
            "byteOffset" : 109596
        },
        {
            "buffer" : 0,
            "byteLength" : 73064,
            "byteOffset" : 219192
        },
        {
            "buffer" : 0,
            "byteLength" : 92886,
            "byteOffset" : 292256
        }
    ],
    "buffers" : [
        {
            "byteLength" : 385144,
            "uri" : "SleeveShort.bin"
        }
    ]
}
