{
    "asset" : {
        "generator" : "Khronos glTF Blender I/O v1.1.45",
        "version" : "2.0"
    },
    "scene" : 0,
    "scenes" : [
        {
            "name" : "Scene",
            "nodes" : [
                0,
                1,
                2
            ]
        }
    ],
    "nodes" : [
        {
            "mesh" : 0,
            "name" : "collar_Tab_Hole",
            "rotation" : [
                0.7071068286895752,
                0,
                0,
                0.7071067094802856
            ],
            "translation" : [
                0.018458738923072815,
                2.881956100463867,
                0.8545036911964417
            ]
        },
        {
            "mesh" : 1,
            "name" : "collar_Tab_Btn",
            "rotation" : [
                0.7071068286895752,
                0,
                0,
                0.7071067094802856
            ],
            "translation" : [
                -0.2873363196849823,
                2.8729515075683594,
                0.848376989364624
            ]
        },
        {
            "mesh" : 2,
            "name" : "collar_Tab",
            "rotation" : [
                0.7071068286895752,
                0,
                0,
                0.7071067094802856
            ],
            "translation" : [
                -0.018582208082079887,
                3.0433101654052734,
                0.20921950042247772
            ]
        }
    ],
    "materials" : [
        {
            "doubleSided" : true,
            "emissiveFactor" : [
                0,
                0,
                0
            ],
            "name" : "Default OBJ.006",
            "pbrMetallicRoughness" : {
                "baseColorFactor" : [
                    0.800000011920929,
                    0.800000011920929,
                    0.800000011920929,
                    1
                ],
                "metallicFactor" : 0,
                "roughnessFactor" : 0.5
            }
        },
        {
            "doubleSided" : true,
            "emissiveFactor" : [
                0,
                0,
                0
            ],
            "name" : "Default OBJ.007",
            "pbrMetallicRoughness" : {
                "baseColorFactor" : [
                    0.800000011920929,
                    0.800000011920929,
                    0.800000011920929,
                    1
                ],
                "metallicFactor" : 0,
                "roughnessFactor" : 0.5
            }
        },
        {
            "doubleSided" : true,
            "emissiveFactor" : [
                0,
                0,
                0
            ],
            "name" : "Default OBJ.008",
            "pbrMetallicRoughness" : {
                "baseColorFactor" : [
                    0.800000011920929,
                    0.800000011920929,
                    0.800000011920929,
                    1
                ],
                "metallicFactor" : 0,
                "roughnessFactor" : 0.5
            }
        }
    ],
    "meshes" : [
        {
            "name" : "collar_Tab_Hole",
            "primitives" : [
                {
                    "attributes" : {
                        "POSITION" : 0,
                        "NORMAL" : 1
                    },
                    "indices" : 2,
                    "material" : 0
                }
            ]
        },
        {
            "name" : "collar_Tab_Btn",
            "primitives" : [
                {
                    "attributes" : {
                        "POSITION" : 3,
                        "NORMAL" : 4
                    },
                    "indices" : 5,
                    "material" : 1
                }
            ]
        },
        {
            "name" : "collar_Tab",
            "primitives" : [
                {
                    "attributes" : {
                        "POSITION" : 6,
                        "NORMAL" : 7,
                        "TEXCOORD_0" : 8
                    },
                    "indices" : 9,
                    "material" : 2
                }
            ]
        }
    ],
    "accessors" : [
        {
            "bufferView" : 0,
            "componentType" : 5126,
            "count" : 560,
            "max" : [
                0.2632715106010437,
                0.04931974411010742,
                0.030019760131835938
            ],
            "min" : [
                -0.3258388638496399,
                -0.04688495397567749,
                -0.027233123779296875
            ],
            "type" : "VEC3"
        },
        {
            "bufferView" : 1,
            "componentType" : 5126,
            "count" : 560,
            "type" : "VEC3"
        },
        {
            "bufferView" : 2,
            "componentType" : 5123,
            "count" : 2412,
            "type" : "SCALAR"
        },
        {
            "bufferView" : 3,
            "componentType" : 5126,
            "count" : 1445,
            "max" : [
                0.050320178270339966,
                0.04022634029388428,
                0.05535125732421875
            ],
            "min" : [
                -0.05148163437843323,
                -0.03818291425704956,
                -0.05447578430175781
            ],
            "type" : "VEC3"
        },
        {
            "bufferView" : 4,
            "componentType" : 5126,
            "count" : 1445,
            "type" : "VEC3"
        },
        {
            "bufferView" : 5,
            "componentType" : 5123,
            "count" : 8706,
            "type" : "SCALAR"
        },
        {
            "bufferView" : 6,
            "componentType" : 5126,
            "count" : 6656,
            "max" : [
                0.8562270402908325,
                0.775746762752533,
                0.5183935165405273
            ],
            "min" : [
                -0.8738327622413635,
                -0.88982754945755,
                -0.4606781005859375
            ],
            "type" : "VEC3"
        },
        {
            "bufferView" : 7,
            "componentType" : 5126,
            "count" : 6656,
            "type" : "VEC3"
        },
        {
            "bufferView" : 8,
            "componentType" : 5126,
            "count" : 6656,
            "type" : "VEC2"
        },
        {
            "bufferView" : 9,
            "componentType" : 5123,
            "count" : 34188,
            "type" : "SCALAR"
        }
    ],
    "bufferViews" : [
        {
            "buffer" : 0,
            "byteLength" : 6720,
            "byteOffset" : 0
        },
        {
            "buffer" : 0,
            "byteLength" : 6720,
            "byteOffset" : 6720
        },
        {
            "buffer" : 0,
            "byteLength" : 4824,
            "byteOffset" : 13440
        },
        {
            "buffer" : 0,
            "byteLength" : 17340,
            "byteOffset" : 18264
        },
        {
            "buffer" : 0,
            "byteLength" : 17340,
            "byteOffset" : 35604
        },
        {
            "buffer" : 0,
            "byteLength" : 17412,
            "byteOffset" : 52944
        },
        {
            "buffer" : 0,
            "byteLength" : 79872,
            "byteOffset" : 70356
        },
        {
            "buffer" : 0,
            "byteLength" : 79872,
            "byteOffset" : 150228
        },
        {
            "buffer" : 0,
            "byteLength" : 53248,
            "byteOffset" : 230100
        },
        {
            "buffer" : 0,
            "byteLength" : 68376,
            "byteOffset" : 283348
        }
    ],
    "buffers" : [
        {
            "byteLength" : 351724,
            "uri" : "collar_Tab.bin"
        }
    ]
}
