{
    "asset" : {
        "generator" : "Khronos glTF Blender I/O v1.1.45",
        "version" : "2.0"
    },
    "scene" : 0,
    "scenes" : [
        {
            "name" : "Scene",
            "nodes" : [
                0,
                1,
                2
            ]
        }
    ],
    "nodes" : [
        {
            "mesh" : 0,
            "name" : "collar_ButtonDownModern_Hole",
            "rotation" : [
                0.7071068286895752,
                0,
                0,
                0.7071067094802856
            ],
            "translation" : [
                -0.012565498240292072,
                2.803037643432617,
                0.7585808634757996
            ]
        },
        {
            "mesh" : 1,
            "name" : "collar_ButtonDownModern_Btn",
            "rotation" : [
                0.7071068286895752,
                0,
                0,
                0.7071067094802856
            ],
            "translation" : [
                -0.28737005591392517,
                2.8761558532714844,
                0.8486006855964661
            ]
        },
        {
            "mesh" : 2,
            "name" : "collar_ButtonDownModern",
            "rotation" : [
                0.7071068286895752,
                0,
                0,
                0.7071067094802856
            ],
            "translation" : [
                -0.030713094398379326,
                3.072225570678711,
                0.15280653536319733
            ]
        }
    ],
    "materials" : [
        {
            "doubleSided" : true,
            "emissiveFactor" : [
                0,
                0,
                0
            ],
            "name" : "Default OBJ.037",
            "pbrMetallicRoughness" : {
                "baseColorFactor" : [
                    0.800000011920929,
                    0.800000011920929,
                    0.800000011920929,
                    1
                ],
                "metallicFactor" : 0,
                "roughnessFactor" : 0.5
            }
        },
        {
            "doubleSided" : true,
            "emissiveFactor" : [
                0,
                0,
                0
            ],
            "name" : "Default OBJ.038",
            "pbrMetallicRoughness" : {
                "baseColorFactor" : [
                    0.800000011920929,
                    0.800000011920929,
                    0.800000011920929,
                    1
                ],
                "metallicFactor" : 0,
                "roughnessFactor" : 0.5
            }
        },
        {
            "doubleSided" : true,
            "emissiveFactor" : [
                0,
                0,
                0
            ],
            "name" : "Default OBJ.039",
            "pbrMetallicRoughness" : {
                "baseColorFactor" : [
                    0.800000011920929,
                    0.800000011920929,
                    0.800000011920929,
                    1
                ],
                "metallicFactor" : 0,
                "roughnessFactor" : 0.5
            }
        }
    ],
    "meshes" : [
        {
            "name" : "collar_ButtonDownModern_Hole",
            "primitives" : [
                {
                    "attributes" : {
                        "POSITION" : 0,
                        "NORMAL" : 1
                    },
                    "indices" : 2,
                    "material" : 0
                }
            ]
        },
        {
            "name" : "collar_ButtonDownModern_Btn",
            "primitives" : [
                {
                    "attributes" : {
                        "POSITION" : 3,
                        "NORMAL" : 4
                    },
                    "indices" : 5,
                    "material" : 1
                }
            ]
        },
        {
            "name" : "collar_ButtonDownModern",
            "primitives" : [
                {
                    "attributes" : {
                        "POSITION" : 6,
                        "NORMAL" : 7,
                        "TEXCOORD_0" : 8
                    },
                    "indices" : 9,
                    "material" : 2
                }
            ]
        }
    ],
    "accessors" : [
        {
            "bufferView" : 0,
            "componentType" : 5126,
            "count" : 1232,
            "max" : [
                0.6227798461914062,
                0.14730501174926758,
                0.12373924255371094
            ],
            "min" : [
                -0.6746243834495544,
                -0.11341577768325806,
                -0.11986351013183594
            ],
            "type" : "VEC3"
        },
        {
            "bufferView" : 1,
            "componentType" : 5126,
            "count" : 1232,
            "type" : "VEC3"
        },
        {
            "bufferView" : 2,
            "componentType" : 5123,
            "count" : 4932,
            "type" : "SCALAR"
        },
        {
            "bufferView" : 3,
            "componentType" : 5126,
            "count" : 1450,
            "max" : [
                0.0515923798084259,
                0.0372583270072937,
                0.05602073669433594
            ],
            "min" : [
                -0.0526961088180542,
                -0.03537410497665405,
                -0.05525970458984375
            ],
            "type" : "VEC3"
        },
        {
            "bufferView" : 4,
            "componentType" : 5126,
            "count" : 1450,
            "type" : "VEC3"
        },
        {
            "bufferView" : 5,
            "componentType" : 5123,
            "count" : 8712,
            "type" : "SCALAR"
        },
        {
            "bufferView" : 6,
            "componentType" : 5126,
            "count" : 4152,
            "max" : [
                0.8725254535675049,
                0.7878744006156921,
                0.453948974609375
            ],
            "min" : [
                -0.8686031699180603,
                -0.8294358253479004,
                -0.4310741424560547
            ],
            "type" : "VEC3"
        },
        {
            "bufferView" : 7,
            "componentType" : 5126,
            "count" : 4152,
            "type" : "VEC3"
        },
        {
            "bufferView" : 8,
            "componentType" : 5126,
            "count" : 4152,
            "type" : "VEC2"
        },
        {
            "bufferView" : 9,
            "componentType" : 5123,
            "count" : 21759,
            "type" : "SCALAR"
        }
    ],
    "bufferViews" : [
        {
            "buffer" : 0,
            "byteLength" : 14784,
            "byteOffset" : 0
        },
        {
            "buffer" : 0,
            "byteLength" : 14784,
            "byteOffset" : 14784
        },
        {
            "buffer" : 0,
            "byteLength" : 9864,
            "byteOffset" : 29568
        },
        {
            "buffer" : 0,
            "byteLength" : 17400,
            "byteOffset" : 39432
        },
        {
            "buffer" : 0,
            "byteLength" : 17400,
            "byteOffset" : 56832
        },
        {
            "buffer" : 0,
            "byteLength" : 17424,
            "byteOffset" : 74232
        },
        {
            "buffer" : 0,
            "byteLength" : 49824,
            "byteOffset" : 91656
        },
        {
            "buffer" : 0,
            "byteLength" : 49824,
            "byteOffset" : 141480
        },
        {
            "buffer" : 0,
            "byteLength" : 33216,
            "byteOffset" : 191304
        },
        {
            "buffer" : 0,
            "byteLength" : 43518,
            "byteOffset" : 224520
        }
    ],
    "buffers" : [
        {
            "byteLength" : 268040,
            "uri" : "collar_ButtonDownModern.bin"
        }
    ]
}
