{
    "asset" : {
        "generator" : "Khronos glTF Blender I/O v1.1.45",
        "version" : "2.0"
    },
    "scene" : 0,
    "scenes" : [
        {
            "name" : "Scene",
            "nodes" : [
                0,
                1,
                2
            ]
        }
    ],
    "nodes" : [
        {
            "mesh" : 0,
            "name" : "collar_Wing",
            "rotation" : [
                0.7071068286895752,
                0,
                0,
                0.7071067094802856
            ],
            "translation" : [
                -0.04540738835930824,
                3.0674171447753906,
                0.3789137601852417
            ]
        },
        {
            "mesh" : 1,
            "name" : "collar_Wing_Btn",
            "rotation" : [
                0.7071068286895752,
                0,
                0,
                0.7071067094802856
            ],
            "translation" : [
                -0.28750917315483093,
                2.8827896118164062,
                0.8488881587982178
            ]
        },
        {
            "mesh" : 2,
            "name" : "collar_Wing_Hole",
            "rotation" : [
                0.7071068286895752,
                0,
                0,
                0.7071067094802856
            ],
            "translation" : [
                0.019344409927725792,
                2.8966903686523438,
                0.8557949662208557
            ]
        }
    ],
    "materials" : [
        {
            "doubleSided" : true,
            "emissiveFactor" : [
                0,
                0,
                0
            ],
            "name" : "Default OBJ.002",
            "pbrMetallicRoughness" : {
                "baseColorFactor" : [
                    0.800000011920929,
                    0.800000011920929,
                    0.800000011920929,
                    1
                ],
                "metallicFactor" : 0,
                "roughnessFactor" : 0.5
            }
        },
        {
            "doubleSided" : true,
            "emissiveFactor" : [
                0,
                0,
                0
            ],
            "name" : "Default OBJ.001",
            "pbrMetallicRoughness" : {
                "baseColorFactor" : [
                    0.800000011920929,
                    0.800000011920929,
                    0.800000011920929,
                    1
                ],
                "metallicFactor" : 0,
                "roughnessFactor" : 0.5
            }
        },
        {
            "doubleSided" : true,
            "emissiveFactor" : [
                0,
                0,
                0
            ],
            "name" : "Default OBJ",
            "pbrMetallicRoughness" : {
                "baseColorFactor" : [
                    0.800000011920929,
                    0.800000011920929,
                    0.800000011920929,
                    1
                ],
                "metallicFactor" : 0,
                "roughnessFactor" : 0.5
            }
        }
    ],
    "meshes" : [
        {
            "name" : "collar_Wing",
            "primitives" : [
                {
                    "attributes" : {
                        "POSITION" : 0,
                        "NORMAL" : 1,
                        "TEXCOORD_0" : 2
                    },
                    "indices" : 3,
                    "material" : 0
                }
            ]
        },
        {
            "name" : "collar_Wing_Btn",
            "primitives" : [
                {
                    "attributes" : {
                        "POSITION" : 4,
                        "NORMAL" : 5
                    },
                    "indices" : 6,
                    "material" : 1
                }
            ]
        },
        {
            "name" : "collar_Wing_Hole",
            "primitives" : [
                {
                    "attributes" : {
                        "POSITION" : 7,
                        "NORMAL" : 8
                    },
                    "indices" : 9,
                    "material" : 2
                }
            ]
        }
    ],
    "accessors" : [
        {
            "bufferView" : 0,
            "componentType" : 5126,
            "count" : 4771,
            "max" : [
                0.8334774374961853,
                0.5614587664604187,
                0.3526611328125
            ],
            "min" : [
                -0.803876519203186,
                -1.0046660900115967,
                -0.43096351623535156
            ],
            "type" : "VEC3"
        },
        {
            "bufferView" : 1,
            "componentType" : 5126,
            "count" : 4771,
            "type" : "VEC3"
        },
        {
            "bufferView" : 2,
            "componentType" : 5126,
            "count" : 4771,
            "type" : "VEC2"
        },
        {
            "bufferView" : 3,
            "componentType" : 5123,
            "count" : 23589,
            "type" : "SCALAR"
        },
        {
            "bufferView" : 4,
            "componentType" : 5126,
            "count" : 1445,
            "max" : [
                0.05035027861595154,
                0.04025036096572876,
                0.05539131164550781
            ],
            "min" : [
                -0.05151286721229553,
                -0.03820610046386719,
                -0.054500579833984375
            ],
            "type" : "VEC3"
        },
        {
            "bufferView" : 5,
            "componentType" : 5126,
            "count" : 1445,
            "type" : "VEC3"
        },
        {
            "bufferView" : 6,
            "componentType" : 5123,
            "count" : 8706,
            "type" : "SCALAR"
        },
        {
            "bufferView" : 7,
            "componentType" : 5126,
            "count" : 560,
            "max" : [
                0.2637144923210144,
                0.04987752437591553,
                0.03493499755859375
            ],
            "min" : [
                -0.3269096612930298,
                -0.046445369720458984,
                -0.03057861328125
            ],
            "type" : "VEC3"
        },
        {
            "bufferView" : 8,
            "componentType" : 5126,
            "count" : 560,
            "type" : "VEC3"
        },
        {
            "bufferView" : 9,
            "componentType" : 5123,
            "count" : 2412,
            "type" : "SCALAR"
        }
    ],
    "bufferViews" : [
        {
            "buffer" : 0,
            "byteLength" : 57252,
            "byteOffset" : 0
        },
        {
            "buffer" : 0,
            "byteLength" : 57252,
            "byteOffset" : 57252
        },
        {
            "buffer" : 0,
            "byteLength" : 38168,
            "byteOffset" : 114504
        },
        {
            "buffer" : 0,
            "byteLength" : 47178,
            "byteOffset" : 152672
        },
        {
            "buffer" : 0,
            "byteLength" : 17340,
            "byteOffset" : 199852
        },
        {
            "buffer" : 0,
            "byteLength" : 17340,
            "byteOffset" : 217192
        },
        {
            "buffer" : 0,
            "byteLength" : 17412,
            "byteOffset" : 234532
        },
        {
            "buffer" : 0,
            "byteLength" : 6720,
            "byteOffset" : 251944
        },
        {
            "buffer" : 0,
            "byteLength" : 6720,
            "byteOffset" : 258664
        },
        {
            "buffer" : 0,
            "byteLength" : 4824,
            "byteOffset" : 265384
        }
    ],
    "buffers" : [
        {
            "byteLength" : 270208,
            "uri" : "Collar_Wing.bin"
        }
    ]
}
