{
    "asset" : {
        "generator" : "Khronos glTF Blender I/O v1.1.45",
        "version" : "2.0"
    },
    "scene" : 0,
    "scenes" : [
        {
            "name" : "Scene",
            "nodes" : [
                0,
                1,
                2
            ]
        }
    ],
    "nodes" : [
        {
            "mesh" : 0,
            "name" : "collar_CutAwayExtreme_Hole",
            "rotation" : [
                0.7071068286895752,
                0,
                0,
                0.7071067094802856
            ],
            "translation" : [
                0.01889658346772194,
                2.89971923828125,
                0.8565130233764648
            ]
        },
        {
            "mesh" : 1,
            "name" : "collar_CutAwayExtreme_Btn",
            "rotation" : [
                0.7071068286895752,
                0,
                0,
                0.7071067094802856
            ],
            "translation" : [
                -0.28748512268066406,
                2.889629364013672,
                0.8490947484970093
            ]
        },
        {
            "mesh" : 2,
            "name" : "collar_CutAwayExtreme",
            "rotation" : [
                0.7071068286895752,
                0,
                0,
                0.7071067094802856
            ],
            "translation" : [
                -0.03399331495165825,
                3.0922012329101562,
                0.14266811311244965
            ]
        }
    ],
    "materials" : [
        {
            "doubleSided" : true,
            "emissiveFactor" : [
                0,
                0,
                0
            ],
            "name" : "Default OBJ.025",
            "pbrMetallicRoughness" : {
                "baseColorFactor" : [
                    0.800000011920929,
                    0.800000011920929,
                    0.800000011920929,
                    1
                ],
                "metallicFactor" : 0,
                "roughnessFactor" : 0.5
            }
        },
        {
            "doubleSided" : true,
            "emissiveFactor" : [
                0,
                0,
                0
            ],
            "name" : "Default OBJ.026",
            "pbrMetallicRoughness" : {
                "baseColorFactor" : [
                    0.800000011920929,
                    0.800000011920929,
                    0.800000011920929,
                    1
                ],
                "metallicFactor" : 0,
                "roughnessFactor" : 0.5
            }
        },
        {
            "doubleSided" : true,
            "emissiveFactor" : [
                0,
                0,
                0
            ],
            "name" : "Default OBJ.027",
            "pbrMetallicRoughness" : {
                "baseColorFactor" : [
                    0.800000011920929,
                    0.800000011920929,
                    0.800000011920929,
                    1
                ],
                "metallicFactor" : 0,
                "roughnessFactor" : 0.5
            }
        }
    ],
    "meshes" : [
        {
            "name" : "collar_CutAwayExtreme_Hole",
            "primitives" : [
                {
                    "attributes" : {
                        "POSITION" : 0,
                        "NORMAL" : 1
                    },
                    "indices" : 2,
                    "material" : 0
                }
            ]
        },
        {
            "name" : "collar_CutAwayExtreme_Btn",
            "primitives" : [
                {
                    "attributes" : {
                        "POSITION" : 3,
                        "NORMAL" : 4
                    },
                    "indices" : 5,
                    "material" : 1
                }
            ]
        },
        {
            "name" : "collar_CutAwayExtreme",
            "primitives" : [
                {
                    "attributes" : {
                        "POSITION" : 6,
                        "NORMAL" : 7,
                        "TEXCOORD_0" : 8
                    },
                    "indices" : 9,
                    "material" : 2
                }
            ]
        }
    ],
    "accessors" : [
        {
            "bufferView" : 0,
            "componentType" : 5126,
            "count" : 560,
            "max" : [
                0.2640441656112671,
                0.04878884553909302,
                0.03262138366699219
            ],
            "min" : [
                -0.32752907276153564,
                -0.04675030708312988,
                -0.028791427612304688
            ],
            "type" : "VEC3"
        },
        {
            "bufferView" : 1,
            "componentType" : 5126,
            "count" : 560,
            "type" : "VEC3"
        },
        {
            "bufferView" : 2,
            "componentType" : 5123,
            "count" : 2412,
            "type" : "SCALAR"
        },
        {
            "bufferView" : 3,
            "componentType" : 5126,
            "count" : 1358,
            "max" : [
                0.05149877071380615,
                0.03749287128448486,
                0.0561370849609375
            ],
            "min" : [
                -0.052858710289001465,
                -0.035201072692871094,
                -0.05520439147949219
            ],
            "type" : "VEC3"
        },
        {
            "bufferView" : 4,
            "componentType" : 5126,
            "count" : 1358,
            "type" : "VEC3"
        },
        {
            "bufferView" : 5,
            "componentType" : 5123,
            "count" : 8184,
            "type" : "SCALAR"
        },
        {
            "bufferView" : 6,
            "componentType" : 5126,
            "count" : 4275,
            "max" : [
                0.8749041557312012,
                0.797667384147644,
                0.4291400909423828
            ],
            "min" : [
                -0.8595082759857178,
                -0.8242534399032593,
                -0.4107818603515625
            ],
            "type" : "VEC3"
        },
        {
            "bufferView" : 7,
            "componentType" : 5126,
            "count" : 4275,
            "type" : "VEC3"
        },
        {
            "bufferView" : 8,
            "componentType" : 5126,
            "count" : 4275,
            "type" : "VEC2"
        },
        {
            "bufferView" : 9,
            "componentType" : 5123,
            "count" : 21705,
            "type" : "SCALAR"
        }
    ],
    "bufferViews" : [
        {
            "buffer" : 0,
            "byteLength" : 6720,
            "byteOffset" : 0
        },
        {
            "buffer" : 0,
            "byteLength" : 6720,
            "byteOffset" : 6720
        },
        {
            "buffer" : 0,
            "byteLength" : 4824,
            "byteOffset" : 13440
        },
        {
            "buffer" : 0,
            "byteLength" : 16296,
            "byteOffset" : 18264
        },
        {
            "buffer" : 0,
            "byteLength" : 16296,
            "byteOffset" : 34560
        },
        {
            "buffer" : 0,
            "byteLength" : 16368,
            "byteOffset" : 50856
        },
        {
            "buffer" : 0,
            "byteLength" : 51300,
            "byteOffset" : 67224
        },
        {
            "buffer" : 0,
            "byteLength" : 51300,
            "byteOffset" : 118524
        },
        {
            "buffer" : 0,
            "byteLength" : 34200,
            "byteOffset" : 169824
        },
        {
            "buffer" : 0,
            "byteLength" : 43410,
            "byteOffset" : 204024
        }
    ],
    "buffers" : [
        {
            "byteLength" : 247436,
            "uri" : "collar_CutAwayExtreme.bin"
        }
    ]
}
