{
    "asset" : {
        "generator" : "Khronos glTF Blender I/O v1.1.45",
        "version" : "2.0"
    },
    "scene" : 0,
    "scenes" : [
        {
            "name" : "Scene",
            "nodes" : [
                0,
                1,
                2
            ]
        }
    ],
    "nodes" : [
        {
            "mesh" : 0,
            "name" : "collar_TurnDownSperior",
            "rotation" : [
                0.7071068286895752,
                0,
                0,
                0.7071067094802856
            ],
            "translation" : [
                -0.015206924639642239,
                3.086315155029297,
                0.15937945246696472
            ]
        },
        {
            "mesh" : 1,
            "name" : "collar_TurnDownSperior_Btn",
            "rotation" : [
                0.7071068286895752,
                0,
                0,
                0.7071067094802856
            ],
            "translation" : [
                -0.2874748408794403,
                2.8813304901123047,
                0.8488298058509827
            ]
        },
        {
            "mesh" : 2,
            "name" : "collar_TurnDownSperior_Hole",
            "rotation" : [
                0.7071068286895752,
                0,
                0,
                0.7071067094802856
            ],
            "translation" : [
                0.0184592567384243,
                2.8903350830078125,
                0.8549296259880066
            ]
        }
    ],
    "materials" : [
        {
            "doubleSided" : true,
            "emissiveFactor" : [
                0,
                0,
                0
            ],
            "name" : "Default OBJ.003",
            "pbrMetallicRoughness" : {
                "baseColorFactor" : [
                    0.800000011920929,
                    0.800000011920929,
                    0.800000011920929,
                    1
                ],
                "metallicFactor" : 0,
                "roughnessFactor" : 0.5
            }
        },
        {
            "doubleSided" : true,
            "emissiveFactor" : [
                0,
                0,
                0
            ],
            "name" : "Default OBJ.004",
            "pbrMetallicRoughness" : {
                "baseColorFactor" : [
                    0.800000011920929,
                    0.800000011920929,
                    0.800000011920929,
                    1
                ],
                "metallicFactor" : 0,
                "roughnessFactor" : 0.5
            }
        },
        {
            "doubleSided" : true,
            "emissiveFactor" : [
                0,
                0,
                0
            ],
            "name" : "Default OBJ.005",
            "pbrMetallicRoughness" : {
                "baseColorFactor" : [
                    0.800000011920929,
                    0.800000011920929,
                    0.800000011920929,
                    1
                ],
                "metallicFactor" : 0,
                "roughnessFactor" : 0.5
            }
        }
    ],
    "meshes" : [
        {
            "name" : "collar_TurnDownSperior",
            "primitives" : [
                {
                    "attributes" : {
                        "POSITION" : 0,
                        "NORMAL" : 1,
                        "TEXCOORD_0" : 2
                    },
                    "indices" : 3,
                    "material" : 0
                }
            ]
        },
        {
            "name" : "collar_TurnDownSperior_Btn",
            "primitives" : [
                {
                    "attributes" : {
                        "POSITION" : 4,
                        "NORMAL" : 5
                    },
                    "indices" : 6,
                    "material" : 1
                }
            ]
        },
        {
            "name" : "collar_TurnDownSperior_Hole",
            "primitives" : [
                {
                    "attributes" : {
                        "POSITION" : 7,
                        "NORMAL" : 8
                    },
                    "indices" : 9,
                    "material" : 2
                }
            ]
        }
    ],
    "accessors" : [
        {
            "bufferView" : 0,
            "componentType" : 5126,
            "count" : 6419,
            "max" : [
                0.8521171808242798,
                0.7808040976524353,
                0.5838241577148438
            ],
            "min" : [
                -0.8781120777130127,
                -0.840950071811676,
                -0.4175090789794922
            ],
            "type" : "VEC3"
        },
        {
            "bufferView" : 1,
            "componentType" : 5126,
            "count" : 6419,
            "type" : "VEC3"
        },
        {
            "bufferView" : 2,
            "componentType" : 5126,
            "count" : 6419,
            "type" : "VEC2"
        },
        {
            "bufferView" : 3,
            "componentType" : 5123,
            "count" : 35310,
            "type" : "SCALAR"
        },
        {
            "bufferView" : 4,
            "componentType" : 5126,
            "count" : 1450,
            "max" : [
                0.050336241722106934,
                0.040228843688964844,
                0.05537986755371094
            ],
            "min" : [
                -0.05151703953742981,
                -0.0382198691368103,
                -0.05450248718261719
            ],
            "type" : "VEC3"
        },
        {
            "bufferView" : 5,
            "componentType" : 5126,
            "count" : 1450,
            "type" : "VEC3"
        },
        {
            "bufferView" : 6,
            "componentType" : 5123,
            "count" : 8712,
            "type" : "SCALAR"
        },
        {
            "bufferView" : 7,
            "componentType" : 5126,
            "count" : 560,
            "max" : [
                0.2638125717639923,
                0.04984503984451294,
                0.030029296875
            ],
            "min" : [
                -0.32599714398384094,
                -0.047434329986572266,
                -0.026987075805664062
            ],
            "type" : "VEC3"
        },
        {
            "bufferView" : 8,
            "componentType" : 5126,
            "count" : 560,
            "type" : "VEC3"
        },
        {
            "bufferView" : 9,
            "componentType" : 5123,
            "count" : 2412,
            "type" : "SCALAR"
        }
    ],
    "bufferViews" : [
        {
            "buffer" : 0,
            "byteLength" : 77028,
            "byteOffset" : 0
        },
        {
            "buffer" : 0,
            "byteLength" : 77028,
            "byteOffset" : 77028
        },
        {
            "buffer" : 0,
            "byteLength" : 51352,
            "byteOffset" : 154056
        },
        {
            "buffer" : 0,
            "byteLength" : 70620,
            "byteOffset" : 205408
        },
        {
            "buffer" : 0,
            "byteLength" : 17400,
            "byteOffset" : 276028
        },
        {
            "buffer" : 0,
            "byteLength" : 17400,
            "byteOffset" : 293428
        },
        {
            "buffer" : 0,
            "byteLength" : 17424,
            "byteOffset" : 310828
        },
        {
            "buffer" : 0,
            "byteLength" : 6720,
            "byteOffset" : 328252
        },
        {
            "buffer" : 0,
            "byteLength" : 6720,
            "byteOffset" : 334972
        },
        {
            "buffer" : 0,
            "byteLength" : 4824,
            "byteOffset" : 341692
        }
    ],
    "buffers" : [
        {
            "byteLength" : 346516,
            "uri" : "collar_TurnDownSperior.bin"
        }
    ]
}
