{
    "asset" : {
        "generator" : "Khronos glTF Blender I/O v1.1.45",
        "version" : "2.0"
    },
    "scene" : 0,
    "scenes" : [
        {
            "name" : "Scene",
            "nodes" : [
                0,
                1,
                2
            ]
        }
    ],
    "nodes" : [
        {
            "mesh" : 0,
            "name" : "collar_CutAwayClassic_Hole",
            "rotation" : [
                0.7071068286895752,
                0,
                0,
                0.7071067094802856
            ],
            "translation" : [
                0.018919598311185837,
                2.890901565551758,
                0.8566582202911377
            ]
        },
        {
            "mesh" : 1,
            "name" : "collar_CutAwayClassic_Btn",
            "rotation" : [
                0.7071068286895752,
                0,
                0,
                0.7071067094802856
            ],
            "translation" : [
                -0.28824445605278015,
                2.8802528381347656,
                0.8501696586608887
            ]
        },
        {
            "mesh" : 2,
            "name" : "collar_CutAwayClassic",
            "rotation" : [
                0.7071068286895752,
                0,
                0,
                0.7071067094802856
            ],
            "translation" : [
                -0.021750664338469505,
                3.103006362915039,
                0.12992605566978455
            ]
        }
    ],
    "materials" : [
        {
            "doubleSided" : true,
            "emissiveFactor" : [
                0,
                0,
                0
            ],
            "name" : "Default OBJ.028",
            "pbrMetallicRoughness" : {
                "baseColorFactor" : [
                    0.800000011920929,
                    0.800000011920929,
                    0.800000011920929,
                    1
                ],
                "metallicFactor" : 0,
                "roughnessFactor" : 0.5
            }
        },
        {
            "doubleSided" : true,
            "emissiveFactor" : [
                0,
                0,
                0
            ],
            "name" : "Default OBJ.029",
            "pbrMetallicRoughness" : {
                "baseColorFactor" : [
                    0.800000011920929,
                    0.800000011920929,
                    0.800000011920929,
                    1
                ],
                "metallicFactor" : 0,
                "roughnessFactor" : 0.5
            }
        },
        {
            "doubleSided" : true,
            "emissiveFactor" : [
                0,
                0,
                0
            ],
            "name" : "Default OBJ.030",
            "pbrMetallicRoughness" : {
                "baseColorFactor" : [
                    0.800000011920929,
                    0.800000011920929,
                    0.800000011920929,
                    1
                ],
                "metallicFactor" : 0,
                "roughnessFactor" : 0.5
            }
        }
    ],
    "meshes" : [
        {
            "name" : "collar_CutAwayClassic_Hole",
            "primitives" : [
                {
                    "attributes" : {
                        "POSITION" : 0,
                        "NORMAL" : 1
                    },
                    "indices" : 2,
                    "material" : 0
                }
            ]
        },
        {
            "name" : "collar_CutAwayClassic_Btn",
            "primitives" : [
                {
                    "attributes" : {
                        "POSITION" : 3,
                        "NORMAL" : 4
                    },
                    "indices" : 5,
                    "material" : 1
                }
            ]
        },
        {
            "name" : "collar_CutAwayClassic",
            "primitives" : [
                {
                    "attributes" : {
                        "POSITION" : 6,
                        "NORMAL" : 7,
                        "TEXCOORD_0" : 8
                    },
                    "indices" : 9,
                    "material" : 2
                }
            ]
        }
    ],
    "accessors" : [
        {
            "bufferView" : 0,
            "componentType" : 5126,
            "count" : 560,
            "max" : [
                0.26332369446754456,
                0.049379825592041016,
                0.0326995849609375
            ],
            "min" : [
                -0.32779261469841003,
                -0.047638654708862305,
                -0.028951644897460938
            ],
            "type" : "VEC3"
        },
        {
            "bufferView" : 1,
            "componentType" : 5126,
            "count" : 560,
            "type" : "VEC3"
        },
        {
            "bufferView" : 2,
            "componentType" : 5123,
            "count" : 2412,
            "type" : "SCALAR"
        },
        {
            "bufferView" : 3,
            "componentType" : 5126,
            "count" : 1446,
            "max" : [
                0.051608532667160034,
                0.03729844093322754,
                0.05605125427246094
            ],
            "min" : [
                -0.052719831466674805,
                -0.03536134958267212,
                -0.05524253845214844
            ],
            "type" : "VEC3"
        },
        {
            "bufferView" : 4,
            "componentType" : 5126,
            "count" : 1446,
            "type" : "VEC3"
        },
        {
            "bufferView" : 5,
            "componentType" : 5123,
            "count" : 8712,
            "type" : "SCALAR"
        },
        {
            "bufferView" : 6,
            "componentType" : 5126,
            "count" : 9645,
            "max" : [
                0.8812684416770935,
                0.8103395104408264,
                0.5545024871826172
            ],
            "min" : [
                -0.9000912308692932,
                -0.8122678995132446,
                -0.4005451202392578
            ],
            "type" : "VEC3"
        },
        {
            "bufferView" : 7,
            "componentType" : 5126,
            "count" : 9645,
            "type" : "VEC3"
        },
        {
            "bufferView" : 8,
            "componentType" : 5126,
            "count" : 9645,
            "type" : "VEC2"
        },
        {
            "bufferView" : 9,
            "componentType" : 5123,
            "count" : 55071,
            "type" : "SCALAR"
        }
    ],
    "bufferViews" : [
        {
            "buffer" : 0,
            "byteLength" : 6720,
            "byteOffset" : 0
        },
        {
            "buffer" : 0,
            "byteLength" : 6720,
            "byteOffset" : 6720
        },
        {
            "buffer" : 0,
            "byteLength" : 4824,
            "byteOffset" : 13440
        },
        {
            "buffer" : 0,
            "byteLength" : 17352,
            "byteOffset" : 18264
        },
        {
            "buffer" : 0,
            "byteLength" : 17352,
            "byteOffset" : 35616
        },
        {
            "buffer" : 0,
            "byteLength" : 17424,
            "byteOffset" : 52968
        },
        {
            "buffer" : 0,
            "byteLength" : 115740,
            "byteOffset" : 70392
        },
        {
            "buffer" : 0,
            "byteLength" : 115740,
            "byteOffset" : 186132
        },
        {
            "buffer" : 0,
            "byteLength" : 77160,
            "byteOffset" : 301872
        },
        {
            "buffer" : 0,
            "byteLength" : 110142,
            "byteOffset" : 379032
        }
    ],
    "buffers" : [
        {
            "byteLength" : 489176,
            "uri" : "collar_CutAwayClassic.bin"
        }
    ]
}
