{
    "asset" : {
        "generator" : "Khronos glTF Blender I/O v1.1.45",
        "version" : "2.0"
    },
    "scene" : 0,
    "scenes" : [
        {
            "name" : "Scene",
            "nodes" : [
                0,
                1,
                2
            ]
        }
    ],
    "nodes" : [
        {
            "mesh" : 0,
            "name" : "cuff_SingleButtonBeveled_Hole",
            "rotation" : [
                0.7071068286895752,
                0,
                0,
                0.7071067094802856
            ],
            "translation" : [
                -0.0444955974817276,
                -2.630934715270996,
                0.25262174010276794
            ]
        },
        {
            "mesh" : 1,
            "name" : "cuff_SingleButtonBeveled_Btn",
            "rotation" : [
                0.7071068286895752,
                0,
                0,
                0.7071067094802856
            ],
            "translation" : [
                -0.04718118533492088,
                -2.6339378356933594,
                0.24968551099300385
            ]
        },
        {
            "mesh" : 2,
            "name" : "cuff_SingleButtonBeveled",
            "rotation" : [
                0.7071068286895752,
                0,
                0,
                0.7071067094802856
            ],
            "translation" : [
                -0.06431181728839874,
                -2.496976852416992,
                0.5059753656387329
            ]
        }
    ],
    "materials" : [
        {
            "doubleSided" : true,
            "emissiveFactor" : [
                0,
                0,
                0
            ],
            "name" : "Default OBJ.049",
            "pbrMetallicRoughness" : {
                "baseColorFactor" : [
                    0.800000011920929,
                    0.800000011920929,
                    0.800000011920929,
                    1
                ],
                "metallicFactor" : 0,
                "roughnessFactor" : 0.5
            }
        },
        {
            "doubleSided" : true,
            "emissiveFactor" : [
                0,
                0,
                0
            ],
            "name" : "Default OBJ.050",
            "pbrMetallicRoughness" : {
                "baseColorFactor" : [
                    0.800000011920929,
                    0.800000011920929,
                    0.800000011920929,
                    1
                ],
                "metallicFactor" : 0,
                "roughnessFactor" : 0.5
            }
        },
        {
            "doubleSided" : true,
            "emissiveFactor" : [
                0,
                0,
                0
            ],
            "name" : "Default OBJ.051",
            "pbrMetallicRoughness" : {
                "baseColorFactor" : [
                    0.800000011920929,
                    0.800000011920929,
                    0.800000011920929,
                    1
                ],
                "metallicFactor" : 0,
                "roughnessFactor" : 0.5
            }
        }
    ],
    "meshes" : [
        {
            "name" : "cuff_SingleButtonBeveled_Hole",
            "primitives" : [
                {
                    "attributes" : {
                        "POSITION" : 0,
                        "NORMAL" : 1
                    },
                    "indices" : 2,
                    "material" : 0
                }
            ]
        },
        {
            "name" : "cuff_SingleButtonBeveled_Btn",
            "primitives" : [
                {
                    "attributes" : {
                        "POSITION" : 3,
                        "NORMAL" : 4
                    },
                    "indices" : 5,
                    "material" : 1
                }
            ]
        },
        {
            "name" : "cuff_SingleButtonBeveled",
            "primitives" : [
                {
                    "attributes" : {
                        "POSITION" : 6,
                        "NORMAL" : 7,
                        "TEXCOORD_0" : 8
                    },
                    "indices" : 9,
                    "material" : 2
                }
            ]
        }
    ],
    "accessors" : [
        {
            "bufferView" : 0,
            "componentType" : 5126,
            "count" : 1087,
            "max" : [
                2.2570462226867676,
                0.5704816579818726,
                0.33159542083740234
            ],
            "min" : [
                -2.263563632965088,
                -0.5688022375106812,
                -0.3466510772705078
            ],
            "type" : "VEC3"
        },
        {
            "bufferView" : 1,
            "componentType" : 5126,
            "count" : 1087,
            "type" : "VEC3"
        },
        {
            "bufferView" : 2,
            "componentType" : 5123,
            "count" : 4704,
            "type" : "SCALAR"
        },
        {
            "bufferView" : 3,
            "componentType" : 5126,
            "count" : 2889,
            "max" : [
                2.2374284267425537,
                0.5943735837936401,
                0.36320018768310547
            ],
            "min" : [
                -2.237947702407837,
                -0.5749542117118835,
                -0.3449068069458008
            ],
            "type" : "VEC3"
        },
        {
            "bufferView" : 4,
            "componentType" : 5126,
            "count" : 2889,
            "type" : "VEC3"
        },
        {
            "bufferView" : 5,
            "componentType" : 5123,
            "count" : 17400,
            "type" : "SCALAR"
        },
        {
            "bufferView" : 6,
            "componentType" : 5126,
            "count" : 4905,
            "max" : [
                2.793936014175415,
                1.1217198371887207,
                0.8355579376220703
            ],
            "min" : [
                -2.719295024871826,
                -0.9045320749282837,
                -0.9948968887329102
            ],
            "type" : "VEC3"
        },
        {
            "bufferView" : 7,
            "componentType" : 5126,
            "count" : 4905,
            "type" : "VEC3"
        },
        {
            "bufferView" : 8,
            "componentType" : 5126,
            "count" : 4905,
            "type" : "VEC2"
        },
        {
            "bufferView" : 9,
            "componentType" : 5123,
            "count" : 25605,
            "type" : "SCALAR"
        }
    ],
    "bufferViews" : [
        {
            "buffer" : 0,
            "byteLength" : 13044,
            "byteOffset" : 0
        },
        {
            "buffer" : 0,
            "byteLength" : 13044,
            "byteOffset" : 13044
        },
        {
            "buffer" : 0,
            "byteLength" : 9408,
            "byteOffset" : 26088
        },
        {
            "buffer" : 0,
            "byteLength" : 34668,
            "byteOffset" : 35496
        },
        {
            "buffer" : 0,
            "byteLength" : 34668,
            "byteOffset" : 70164
        },
        {
            "buffer" : 0,
            "byteLength" : 34800,
            "byteOffset" : 104832
        },
        {
            "buffer" : 0,
            "byteLength" : 58860,
            "byteOffset" : 139632
        },
        {
            "buffer" : 0,
            "byteLength" : 58860,
            "byteOffset" : 198492
        },
        {
            "buffer" : 0,
            "byteLength" : 39240,
            "byteOffset" : 257352
        },
        {
            "buffer" : 0,
            "byteLength" : 51210,
            "byteOffset" : 296592
        }
    ],
    "buffers" : [
        {
            "byteLength" : 347804,
            "uri" : "SingleButtonBeveled.bin"
        }
    ]
}
