{
    "asset" : {
        "generator" : "Khronos glTF Blender I/O v1.1.45",
        "version" : "2.0"
    },
    "scene" : 0,
    "scenes" : [
        {
            "name" : "Scene",
            "nodes" : [
                0,
                1,
                2
            ]
        }
    ],
    "nodes" : [
        {
            "mesh" : 0,
            "name" : "collar_Pin_Hole",
            "rotation" : [
                0.7071068286895752,
                0,
                0,
                0.7071067094802856
            ],
            "translation" : [
                0.019085874781012535,
                2.862508773803711,
                0.8537653088569641
            ]
        },
        {
            "mesh" : 1,
            "name" : "collar_Pin_Btn",
            "rotation" : [
                0.7071068286895752,
                0,
                0,
                0.7071067094802856
            ],
            "translation" : [
                -0.286939799785614,
                2.8509254455566406,
                0.8472483158111572
            ]
        },
        {
            "mesh" : 2,
            "name" : "collar_Pin",
            "rotation" : [
                0.7071068286895752,
                0,
                0,
                0.7071067094802856
            ],
            "translation" : [
                -0.022134045138955116,
                3.0460357666015625,
                0.19904756546020508
            ]
        }
    ],
    "materials" : [
        {
            "doubleSided" : true,
            "emissiveFactor" : [
                0,
                0,
                0
            ],
            "name" : "Default OBJ.009",
            "pbrMetallicRoughness" : {
                "baseColorFactor" : [
                    0.800000011920929,
                    0.800000011920929,
                    0.800000011920929,
                    1
                ],
                "metallicFactor" : 0,
                "roughnessFactor" : 0.5
            }
        },
        {
            "doubleSided" : true,
            "emissiveFactor" : [
                0,
                0,
                0
            ],
            "name" : "Default OBJ.010",
            "pbrMetallicRoughness" : {
                "baseColorFactor" : [
                    0.800000011920929,
                    0.800000011920929,
                    0.800000011920929,
                    1
                ],
                "metallicFactor" : 0,
                "roughnessFactor" : 0.5
            }
        },
        {
            "doubleSided" : true,
            "emissiveFactor" : [
                0,
                0,
                0
            ],
            "name" : "Default OBJ.011",
            "pbrMetallicRoughness" : {
                "baseColorFactor" : [
                    0.800000011920929,
                    0.800000011920929,
                    0.800000011920929,
                    1
                ],
                "metallicFactor" : 0,
                "roughnessFactor" : 0.5
            }
        }
    ],
    "meshes" : [
        {
            "name" : "collar_Pin_Hole",
            "primitives" : [
                {
                    "attributes" : {
                        "POSITION" : 0,
                        "NORMAL" : 1
                    },
                    "indices" : 2,
                    "material" : 0
                }
            ]
        },
        {
            "name" : "collar_Pin_Btn",
            "primitives" : [
                {
                    "attributes" : {
                        "POSITION" : 3,
                        "NORMAL" : 4
                    },
                    "indices" : 5,
                    "material" : 1
                }
            ]
        },
        {
            "name" : "collar_Pin",
            "primitives" : [
                {
                    "attributes" : {
                        "POSITION" : 6,
                        "NORMAL" : 7,
                        "TEXCOORD_0" : 8
                    },
                    "indices" : 9,
                    "material" : 2
                }
            ]
        }
    ],
    "accessors" : [
        {
            "bufferView" : 0,
            "componentType" : 5126,
            "count" : 560,
            "max" : [
                0.2628384828567505,
                0.04901856184005737,
                0.03466987609863281
            ],
            "min" : [
                -0.32601162791252136,
                -0.04588472843170166,
                -0.0305938720703125
            ],
            "type" : "VEC3"
        },
        {
            "bufferView" : 1,
            "componentType" : 5126,
            "count" : 560,
            "type" : "VEC3"
        },
        {
            "bufferView" : 2,
            "componentType" : 5123,
            "count" : 2412,
            "type" : "SCALAR"
        },
        {
            "bufferView" : 3,
            "componentType" : 5126,
            "count" : 1450,
            "max" : [
                0.050242722034454346,
                0.04015457630157471,
                0.055286407470703125
            ],
            "min" : [
                -0.051420778036117554,
                -0.03814804553985596,
                -0.05438995361328125
            ],
            "type" : "VEC3"
        },
        {
            "bufferView" : 4,
            "componentType" : 5126,
            "count" : 1450,
            "type" : "VEC3"
        },
        {
            "bufferView" : 5,
            "componentType" : 5123,
            "count" : 8712,
            "type" : "SCALAR"
        },
        {
            "bufferView" : 6,
            "componentType" : 5126,
            "count" : 8780,
            "max" : [
                0.8774781823158264,
                0.7415251731872559,
                0.5605440139770508
            ],
            "min" : [
                -0.8881319761276245,
                -0.8709263801574707,
                -0.45794677734375
            ],
            "type" : "VEC3"
        },
        {
            "bufferView" : 7,
            "componentType" : 5126,
            "count" : 8780,
            "type" : "VEC3"
        },
        {
            "bufferView" : 8,
            "componentType" : 5126,
            "count" : 8780,
            "type" : "VEC2"
        },
        {
            "bufferView" : 9,
            "componentType" : 5123,
            "count" : 48318,
            "type" : "SCALAR"
        }
    ],
    "bufferViews" : [
        {
            "buffer" : 0,
            "byteLength" : 6720,
            "byteOffset" : 0
        },
        {
            "buffer" : 0,
            "byteLength" : 6720,
            "byteOffset" : 6720
        },
        {
            "buffer" : 0,
            "byteLength" : 4824,
            "byteOffset" : 13440
        },
        {
            "buffer" : 0,
            "byteLength" : 17400,
            "byteOffset" : 18264
        },
        {
            "buffer" : 0,
            "byteLength" : 17400,
            "byteOffset" : 35664
        },
        {
            "buffer" : 0,
            "byteLength" : 17424,
            "byteOffset" : 53064
        },
        {
            "buffer" : 0,
            "byteLength" : 105360,
            "byteOffset" : 70488
        },
        {
            "buffer" : 0,
            "byteLength" : 105360,
            "byteOffset" : 175848
        },
        {
            "buffer" : 0,
            "byteLength" : 70240,
            "byteOffset" : 281208
        },
        {
            "buffer" : 0,
            "byteLength" : 96636,
            "byteOffset" : 351448
        }
    ],
    "buffers" : [
        {
            "byteLength" : 448084,
            "uri" : "collar_Pin.bin"
        }
    ]
}
