{
    "asset" : {
        "generator" : "Khronos glTF Blender I/O v1.1.45",
        "version" : "2.0"
    },
    "scene" : 0,
    "scenes" : [
        {
            "name" : "Scene",
            "nodes" : [
                0
            ]
        }
    ],
    "nodes" : [
        {
            "mesh" : 0,
            "name" : "fit_BodyFitStraight",
            "rotation" : [
                0.7071068286895752,
                0,
                0,
                0.7071067094802856
            ],
            "translation" : [
                0.02308664843440056,
                0.09443187713623047,
                0.07219509035348892
            ]
        }
    ],
    "materials" : [
        {
            "doubleSided" : true,
            "emissiveFactor" : [
                0,
                0,
                0
            ],
            "name" : "Default OBJ.083",
            "pbrMetallicRoughness" : {
                "baseColorFactor" : [
                    0.800000011920929,
                    0.800000011920929,
                    0.800000011920929,
                    1
                ],
                "metallicFactor" : 0,
                "roughnessFactor" : 0.5
            }
        }
    ],
    "meshes" : [
        {
            "name" : "fit_BodyFitStraight",
            "primitives" : [
                {
                    "attributes" : {
                        "POSITION" : 0,
                        "NORMAL" : 1,
                        "TEXCOORD_0" : 2
                    },
                    "indices" : 3,
                    "material" : 0
                }
            ]
        }
    ],
    "accessors" : [
        {
            "bufferView" : 0,
            "componentType" : 5126,
            "count" : 2845,
            "max" : [
                2.1132450103759766,
                1.2324268817901611,
                3.2409629821777344
            ],
            "min" : [
                -2.2129244804382324,
                -1.3356761932373047,
                -3.052060127258301
            ],
            "type" : "VEC3"
        },
        {
            "bufferView" : 1,
            "componentType" : 5126,
            "count" : 2845,
            "type" : "VEC3"
        },
        {
            "bufferView" : 2,
            "componentType" : 5126,
            "count" : 2845,
            "type" : "VEC2"
        },
        {
            "bufferView" : 3,
            "componentType" : 5123,
            "count" : 15681,
            "type" : "SCALAR"
        }
    ],
    "bufferViews" : [
        {
            "buffer" : 0,
            "byteLength" : 34140,
            "byteOffset" : 0
        },
        {
            "buffer" : 0,
            "byteLength" : 34140,
            "byteOffset" : 34140
        },
        {
            "buffer" : 0,
            "byteLength" : 22760,
            "byteOffset" : 68280
        },
        {
            "buffer" : 0,
            "byteLength" : 31362,
            "byteOffset" : 91040
        }
    ],
    "buffers" : [
        {
            "byteLength" : 122404,
            "uri" : "BodyFitStraight.bin"
        }
    ]
}
