{
    "asset" : {
        "generator" : "Khronos glTF Blender I/O v1.1.45",
        "version" : "2.0"
    },
    "scene" : 0,
    "scenes" : [
        {
            "name" : "Scene",
            "nodes" : [
                0
            ]
        }
    ],
    "nodes" : [
        {
            "mesh" : 0,
            "name" : "fit_BodyFitClassic",
            "rotation" : [
                0.7071068286895752,
                0,
                0,
                0.7071067094802856
            ],
            "translation" : [
                -0.020829597488045692,
                0.19105911254882812,
                0.13064634799957275
            ]
        }
    ],
    "materials" : [
        {
            "doubleSided" : true,
            "name" : "Shirt",
            "pbrMetallicRoughness" : {}
        }
    ],
    "meshes" : [
        {
            "name" : "fit_BodyFitClassic",
            "primitives" : [
                {
                    "attributes" : {
                        "POSITION" : 0,
                        "NORMAL" : 1,
                        "TEXCOORD_0" : 2
                    },
                    "indices" : 3,
                    "material" : 0
                }
            ]
        }
    ],
    "accessors" : [
        {
            "bufferView" : 0,
            "componentType" : 5126,
            "count" : 2452,
            "max" : [
                2.1562812328338623,
                1.1737476587295532,
                3.8419265747070312
            ],
            "min" : [
                -2.1694469451904297,
                -1.3941713571548462,
                -2.95571231842041
            ],
            "type" : "VEC3"
        },
        {
            "bufferView" : 1,
            "componentType" : 5126,
            "count" : 2452,
            "type" : "VEC3"
        },
        {
            "bufferView" : 2,
            "componentType" : 5126,
            "count" : 2452,
            "type" : "VEC2"
        },
        {
            "bufferView" : 3,
            "componentType" : 5123,
            "count" : 13443,
            "type" : "SCALAR"
        }
    ],
    "bufferViews" : [
        {
            "buffer" : 0,
            "byteLength" : 29424,
            "byteOffset" : 0
        },
        {
            "buffer" : 0,
            "byteLength" : 29424,
            "byteOffset" : 29424
        },
        {
            "buffer" : 0,
            "byteLength" : 19616,
            "byteOffset" : 58848
        },
        {
            "buffer" : 0,
            "byteLength" : 26886,
            "byteOffset" : 78464
        }
    ],
    "buffers" : [
        {
            "byteLength" : 105352,
            "uri" : "BodyFitClassic.bin"
        }
    ]
}
