{
    "asset" : {
        "generator" : "Khronos glTF Blender I/O v1.1.45",
        "version" : "2.0"
    },
    "scene" : 0,
    "scenes" : [
        {
            "name" : "Scene",
            "nodes" : [
                0
            ]
        }
    ],
    "nodes" : [
        {
            "mesh" : 0,
            "name" : "fit_BodyFitModern",
            "rotation" : [
                0.7071068286895752,
                0,
                0,
                0.7071067094802856
            ],
            "translation" : [
                -0.01911831460893154,
                0.17604637145996094,
                0.06885338574647903
            ]
        }
    ],
    "materials" : [
        {
            "doubleSided" : true,
            "emissiveFactor" : [
                0,
                0,
                0
            ],
            "name" : "Default OBJ.082",
            "pbrMetallicRoughness" : {
                "baseColorFactor" : [
                    0.800000011920929,
                    0.800000011920929,
                    0.800000011920929,
                    1
                ],
                "metallicFactor" : 0,
                "roughnessFactor" : 0.5
            }
        }
    ],
    "meshes" : [
        {
            "name" : "fit_BodyFitModern",
            "primitives" : [
                {
                    "attributes" : {
                        "POSITION" : 0,
                        "NORMAL" : 1,
                        "TEXCOORD_0" : 2
                    },
                    "indices" : 3,
                    "material" : 0
                }
            ]
        }
    ],
    "accessors" : [
        {
            "bufferView" : 0,
            "componentType" : 5126,
            "count" : 2898,
            "max" : [
                2.1564857959747314,
                1.234724998474121,
                3.3142147064208984
            ],
            "min" : [
                -2.1707186698913574,
                -1.3336668014526367,
                -2.971036911010742
            ],
            "type" : "VEC3"
        },
        {
            "bufferView" : 1,
            "componentType" : 5126,
            "count" : 2898,
            "type" : "VEC3"
        },
        {
            "bufferView" : 2,
            "componentType" : 5126,
            "count" : 2898,
            "type" : "VEC2"
        },
        {
            "bufferView" : 3,
            "componentType" : 5123,
            "count" : 15918,
            "type" : "SCALAR"
        }
    ],
    "bufferViews" : [
        {
            "buffer" : 0,
            "byteLength" : 34776,
            "byteOffset" : 0
        },
        {
            "buffer" : 0,
            "byteLength" : 34776,
            "byteOffset" : 34776
        },
        {
            "buffer" : 0,
            "byteLength" : 23184,
            "byteOffset" : 69552
        },
        {
            "buffer" : 0,
            "byteLength" : 31836,
            "byteOffset" : 92736
        }
    ],
    "buffers" : [
        {
            "byteLength" : 124572,
            "uri" : "BodyFitModern.bin"
        }
    ]
}
