{
    "asset" : {
        "generator" : "Khronos glTF Blender I/O v1.1.45",
        "version" : "2.0"
    },
    "scene" : 0,
    "scenes" : [
        {
            "name" : "Scene",
            "nodes" : [
                0
            ]
        }
    ],
    "nodes" : [
        {
            "mesh" : 0,
            "name" : "fit_LooseFitStraight",
            "rotation" : [
                0.7071068286895752,
                0,
                0,
                0.7071067094802856
            ],
            "translation" : [
                -0.02989991568028927,
                0.11919879913330078,
                -0.005054431967437267
            ]
        }
    ],
    "materials" : [
        {
            "doubleSided" : true,
            "emissiveFactor" : [
                0,
                0,
                0
            ],
            "name" : "Default OBJ.089",
            "pbrMetallicRoughness" : {
                "baseColorFactor" : [
                    0.800000011920929,
                    0.800000011920929,
                    0.800000011920929,
                    1
                ],
                "metallicFactor" : 0,
                "roughnessFactor" : 0.5
            }
        }
    ],
    "meshes" : [
        {
            "name" : "fit_LooseFitStraight",
            "primitives" : [
                {
                    "attributes" : {
                        "POSITION" : 0,
                        "NORMAL" : 1,
                        "TEXCOORD_0" : 2
                    },
                    "indices" : 3,
                    "material" : 0
                }
            ]
        }
    ],
    "accessors" : [
        {
            "bufferView" : 0,
            "componentType" : 5126,
            "count" : 2665,
            "max" : [
                2.167670965194702,
                1.3095682859420776,
                3.325115203857422
            ],
            "min" : [
                -2.159938097000122,
                -1.2511696815490723,
                -3.027829170227051
            ],
            "type" : "VEC3"
        },
        {
            "bufferView" : 1,
            "componentType" : 5126,
            "count" : 2665,
            "type" : "VEC3"
        },
        {
            "bufferView" : 2,
            "componentType" : 5126,
            "count" : 2665,
            "type" : "VEC2"
        },
        {
            "bufferView" : 3,
            "componentType" : 5123,
            "count" : 14652,
            "type" : "SCALAR"
        }
    ],
    "bufferViews" : [
        {
            "buffer" : 0,
            "byteLength" : 31980,
            "byteOffset" : 0
        },
        {
            "buffer" : 0,
            "byteLength" : 31980,
            "byteOffset" : 31980
        },
        {
            "buffer" : 0,
            "byteLength" : 21320,
            "byteOffset" : 63960
        },
        {
            "buffer" : 0,
            "byteLength" : 29304,
            "byteOffset" : 85280
        }
    ],
    "buffers" : [
        {
            "byteLength" : 114584,
            "uri" : "LooseFitStraight.bin"
        }
    ]
}
