{
    "asset" : {
        "generator" : "Khronos glTF Blender I/O v1.1.45",
        "version" : "2.0"
    },
    "scene" : 0,
    "scenes" : [
        {
            "name" : "Scene",
            "nodes" : [
                0
            ]
        }
    ],
    "nodes" : [
        {
            "mesh" : 0,
            "name" : "fit_SlimFitModern",
            "rotation" : [
                0.7071068286895752,
                0,
                0,
                0.7071067094802856
            ],
            "translation" : [
                0.04292449727654457,
                0.1308145523071289,
                3.916104469681159e-05
            ]
        }
    ],
    "materials" : [
        {
            "doubleSided" : true,
            "emissiveFactor" : [
                0,
                0,
                0
            ],
            "name" : "Default OBJ.085",
            "pbrMetallicRoughness" : {
                "baseColorFactor" : [
                    0.800000011920929,
                    0.800000011920929,
                    0.800000011920929,
                    1
                ],
                "metallicFactor" : 0,
                "roughnessFactor" : 0.5
            }
        }
    ],
    "meshes" : [
        {
            "name" : "fit_SlimFitModern",
            "primitives" : [
                {
                    "attributes" : {
                        "POSITION" : 0,
                        "NORMAL" : 1,
                        "TEXCOORD_0" : 2
                    },
                    "indices" : 3,
                    "material" : 0
                }
            ]
        }
    ],
    "accessors" : [
        {
            "bufferView" : 0,
            "componentType" : 5126,
            "count" : 1942,
            "max" : [
                2.0865354537963867,
                1.3028732538223267,
                3.285776138305664
            ],
            "min" : [
                -2.228942394256592,
                -1.26229989528656,
                -3.016171455383301
            ],
            "type" : "VEC3"
        },
        {
            "bufferView" : 1,
            "componentType" : 5126,
            "count" : 1942,
            "type" : "VEC3"
        },
        {
            "bufferView" : 2,
            "componentType" : 5126,
            "count" : 1942,
            "type" : "VEC2"
        },
        {
            "bufferView" : 3,
            "componentType" : 5123,
            "count" : 10590,
            "type" : "SCALAR"
        }
    ],
    "bufferViews" : [
        {
            "buffer" : 0,
            "byteLength" : 23304,
            "byteOffset" : 0
        },
        {
            "buffer" : 0,
            "byteLength" : 23304,
            "byteOffset" : 23304
        },
        {
            "buffer" : 0,
            "byteLength" : 15536,
            "byteOffset" : 46608
        },
        {
            "buffer" : 0,
            "byteLength" : 21180,
            "byteOffset" : 62144
        }
    ],
    "buffers" : [
        {
            "byteLength" : 83324,
            "uri" : "SlimFitModern.bin"
        }
    ]
}
