{
    "asset" : {
        "generator" : "Khronos glTF Blender I/O v1.1.45",
        "version" : "2.0"
    },
    "scene" : 0,
    "scenes" : [
        {
            "name" : "Scene",
            "nodes" : [
                0
            ]
        }
    ],
    "nodes" : [
        {
            "mesh" : 0,
            "name" : "fit_SlimFitStraight",
            "rotation" : [
                0.7071068286895752,
                0,
                0,
                0.7071067094802856
            ],
            "translation" : [
                0.020163124427199364,
                0.24301719665527344,
                0.026618540287017822
            ]
        }
    ],
    "materials" : [
        {
            "doubleSided" : true,
            "emissiveFactor" : [
                0,
                0,
                0
            ],
            "name" : "Default OBJ.084",
            "pbrMetallicRoughness" : {
                "baseColorFactor" : [
                    0.800000011920929,
                    0.800000011920929,
                    0.800000011920929,
                    1
                ],
                "metallicFactor" : 0,
                "roughnessFactor" : 0.5
            }
        }
    ],
    "meshes" : [
        {
            "name" : "fit_SlimFitStraight",
            "primitives" : [
                {
                    "attributes" : {
                        "POSITION" : 0,
                        "NORMAL" : 1,
                        "TEXCOORD_0" : 2
                    },
                    "indices" : 3,
                    "material" : 0
                }
            ]
        }
    ],
    "accessors" : [
        {
            "bufferView" : 0,
            "componentType" : 5126,
            "count" : 2034,
            "max" : [
                2.106926202774048,
                1.278035283088684,
                3.4209508895874023
            ],
            "min" : [
                -2.208285331726074,
                -1.2839515209197998,
                -2.897340774536133
            ],
            "type" : "VEC3"
        },
        {
            "bufferView" : 1,
            "componentType" : 5126,
            "count" : 2034,
            "type" : "VEC3"
        },
        {
            "bufferView" : 2,
            "componentType" : 5126,
            "count" : 2034,
            "type" : "VEC2"
        },
        {
            "bufferView" : 3,
            "componentType" : 5123,
            "count" : 10881,
            "type" : "SCALAR"
        }
    ],
    "bufferViews" : [
        {
            "buffer" : 0,
            "byteLength" : 24408,
            "byteOffset" : 0
        },
        {
            "buffer" : 0,
            "byteLength" : 24408,
            "byteOffset" : 24408
        },
        {
            "buffer" : 0,
            "byteLength" : 16272,
            "byteOffset" : 48816
        },
        {
            "buffer" : 0,
            "byteLength" : 21762,
            "byteOffset" : 65088
        }
    ],
    "buffers" : [
        {
            "byteLength" : 86852,
            "uri" : "SlimFitStraight.bin"
        }
    ]
}
