{
    "asset" : {
        "generator" : "Khronos glTF Blender I/O v1.1.45",
        "version" : "2.0"
    },
    "scene" : 0,
    "scenes" : [
        {
            "name" : "Scene",
            "nodes" : [
                0
            ]
        }
    ],
    "nodes" : [
        {
            "mesh" : 0,
            "name" : "pocket_Lt-Straight",
            "rotation" : [
                0.7071068286895752,
                0,
                0,
                0.7071067094802856
            ],
            "translation" : [
                0.8530561327934265,
                1.2998237609863281,
                1.1048915386199951
            ]
        }
    ],
    "materials" : [
        {
            "doubleSided" : true,
            "emissiveFactor" : [
                0,
                0,
                0
            ],
            "name" : "Default OBJ.066",
            "pbrMetallicRoughness" : {
                "baseColorFactor" : [
                    0.800000011920929,
                    0.800000011920929,
                    0.800000011920929,
                    1
                ],
                "metallicFactor" : 0,
                "roughnessFactor" : 0.5
            }
        }
    ],
    "meshes" : [
        {
            "name" : "pocket_Lt-Straight_Poc",
            "primitives" : [
                {
                    "attributes" : {
                        "POSITION" : 0,
                        "NORMAL" : 1,
                        "TEXCOORD_0" : 2
                    },
                    "indices" : 3,
                    "material" : 0
                }
            ]
        }
    ],
    "accessors" : [
        {
            "bufferView" : 0,
            "componentType" : 5126,
            "count" : 275,
            "max" : [
                0.45995432138442993,
                0.18608903884887695,
                0.5616683959960938
            ],
            "min" : [
                -0.48602011799812317,
                -0.31995826959609985,
                -0.5258922576904297
            ],
            "type" : "VEC3"
        },
        {
            "bufferView" : 1,
            "componentType" : 5126,
            "count" : 275,
            "type" : "VEC3"
        },
        {
            "bufferView" : 2,
            "componentType" : 5126,
            "count" : 275,
            "type" : "VEC2"
        },
        {
            "bufferView" : 3,
            "componentType" : 5123,
            "count" : 1479,
            "type" : "SCALAR"
        }
    ],
    "bufferViews" : [
        {
            "buffer" : 0,
            "byteLength" : 3300,
            "byteOffset" : 0
        },
        {
            "buffer" : 0,
            "byteLength" : 3300,
            "byteOffset" : 3300
        },
        {
            "buffer" : 0,
            "byteLength" : 2200,
            "byteOffset" : 6600
        },
        {
            "buffer" : 0,
            "byteLength" : 2958,
            "byteOffset" : 8800
        }
    ],
    "buffers" : [
        {
            "byteLength" : 11760,
            "uri" : "Lt-Straight.bin"
        }
    ]
}
