{
    "asset" : {
        "generator" : "Khronos glTF Blender I/O v1.1.45",
        "version" : "2.0"
    },
    "scene" : 0,
    "scenes" : [
        {
            "name" : "Scene",
            "nodes" : [
                0,
                1,
                2
            ]
        }
    ],
    "nodes" : [
        {
            "mesh" : 0,
            "name" : "placket_WithoutPlacket",
            "rotation" : [
                0.7071068286895752,
                0,
                0,
                0.7071067094802856
            ],
            "translation" : [
                -0.02153373509645462,
                -0.08923530578613281,
                1.1587512493133545
            ]
        },
        {
            "mesh" : 1,
            "name" : "placket_WithoutPlacket_Btn",
            "rotation" : [
                0.7071068286895752,
                0,
                0,
                0.7071067094802856
            ],
            "translation" : [
                0,
                -13.490425109863281,
                0
            ]
        },
        {
            "mesh" : 2,
            "name" : "placket_WithoutPlacket_Hole",
            "rotation" : [
                0.7071068286895752,
                0,
                0,
                0.7071067094802856
            ],
            "translation" : [
                0,
                -13.493886947631836,
                0
            ]
        }
    ],
    "materials" : [
        {
            "doubleSided" : true,
            "name" : "Shirt",
            "pbrMetallicRoughness" : {}
        },
        {
            "doubleSided" : true,
            "emissiveFactor" : [
                0,
                0,
                0
            ],
            "name" : "Default OBJ.075",
            "pbrMetallicRoughness" : {
                "baseColorFactor" : [
                    0.800000011920929,
                    0.800000011920929,
                    0.800000011920929,
                    1
                ],
                "metallicFactor" : 0,
                "roughnessFactor" : 0.5
            }
        },
        {
            "doubleSided" : true,
            "emissiveFactor" : [
                0,
                0,
                0
            ],
            "name" : "Default OBJ.074",
            "pbrMetallicRoughness" : {
                "baseColorFactor" : [
                    0.800000011920929,
                    0.800000011920929,
                    0.800000011920929,
                    1
                ],
                "metallicFactor" : 0,
                "roughnessFactor" : 0.5
            }
        }
    ],
    "meshes" : [
        {
            "name" : "placket_WithoutPlacket",
            "primitives" : [
                {
                    "attributes" : {
                        "POSITION" : 0,
                        "NORMAL" : 1,
                        "TEXCOORD_0" : 2
                    },
                    "indices" : 3,
                    "material" : 0
                }
            ]
        },
        {
            "name" : "placket_WithoutPlacket_Btn.001",
            "primitives" : [
                {
                    "attributes" : {
                        "POSITION" : 4,
                        "NORMAL" : 5
                    },
                    "indices" : 6,
                    "material" : 1
                }
            ]
        },
        {
            "name" : "placket_WithoutPlacket_Hole.001",
            "primitives" : [
                {
                    "attributes" : {
                        "POSITION" : 7,
                        "NORMAL" : 8
                    },
                    "indices" : 9,
                    "material" : 2
                }
            ]
        }
    ],
    "accessors" : [
        {
            "bufferView" : 0,
            "componentType" : 5126,
            "count" : 6478,
            "max" : [
                0.30388039350509644,
                0.1554197072982788,
                3.04763126373291
            ],
            "min" : [
                -0.33024024963378906,
                -0.41649192571640015,
                -2.926590919494629
            ],
            "type" : "VEC3"
        },
        {
            "bufferView" : 1,
            "componentType" : 5126,
            "count" : 6478,
            "type" : "VEC3"
        },
        {
            "bufferView" : 2,
            "componentType" : 5126,
            "count" : 6478,
            "type" : "VEC2"
        },
        {
            "bufferView" : 3,
            "componentType" : 5123,
            "count" : 36864,
            "type" : "SCALAR"
        },
        {
            "bufferView" : 4,
            "componentType" : 5126,
            "count" : 10113,
            "max" : [
                0.04062874615192413,
                1.3163574934005737,
                -11.102479934692383
            ],
            "min" : [
                -0.09592262655496597,
                0.891616940498352,
                -15.746118545532227
            ],
            "type" : "VEC3"
        },
        {
            "bufferView" : 5,
            "componentType" : 5126,
            "count" : 10113,
            "type" : "VEC3"
        },
        {
            "bufferView" : 6,
            "componentType" : 5123,
            "count" : 60924,
            "type" : "SCALAR"
        },
        {
            "bufferView" : 7,
            "componentType" : 5126,
            "count" : 3808,
            "max" : [
                0.010132312774658203,
                1.3212981224060059,
                -11.076600074768066
            ],
            "min" : [
                -0.0693705677986145,
                0.8768508434295654,
                -15.76741886138916
            ],
            "type" : "VEC3"
        },
        {
            "bufferView" : 8,
            "componentType" : 5126,
            "count" : 3808,
            "type" : "VEC3"
        },
        {
            "bufferView" : 9,
            "componentType" : 5123,
            "count" : 16464,
            "type" : "SCALAR"
        }
    ],
    "bufferViews" : [
        {
            "buffer" : 0,
            "byteLength" : 77736,
            "byteOffset" : 0
        },
        {
            "buffer" : 0,
            "byteLength" : 77736,
            "byteOffset" : 77736
        },
        {
            "buffer" : 0,
            "byteLength" : 51824,
            "byteOffset" : 155472
        },
        {
            "buffer" : 0,
            "byteLength" : 73728,
            "byteOffset" : 207296
        },
        {
            "buffer" : 0,
            "byteLength" : 121356,
            "byteOffset" : 281024
        },
        {
            "buffer" : 0,
            "byteLength" : 121356,
            "byteOffset" : 402380
        },
        {
            "buffer" : 0,
            "byteLength" : 121848,
            "byteOffset" : 523736
        },
        {
            "buffer" : 0,
            "byteLength" : 45696,
            "byteOffset" : 645584
        },
        {
            "buffer" : 0,
            "byteLength" : 45696,
            "byteOffset" : 691280
        },
        {
            "buffer" : 0,
            "byteLength" : 32928,
            "byteOffset" : 736976
        }
    ],
    "buffers" : [
        {
            "byteLength" : 769904,
            "uri" : "PlacketWithoutPlacket.bin"
        }
    ]
}
