{
    "asset" : {
        "generator" : "Khronos glTF Blender I/O v1.1.45",
        "version" : "2.0"
    },
    "scene" : 0,
    "scenes" : [
        {
            "name" : "Scene",
            "nodes" : [
                0
            ]
        }
    ],
    "nodes" : [
        {
            "mesh" : 0,
            "name" : "fit_NormalFitStraight",
            "rotation" : [
                0.7071068286895752,
                0,
                0,
                0.7071067094802856
            ],
            "translation" : [
                -0.06672642379999161,
                0.11397266387939453,
                0.03245685249567032
            ]
        }
    ],
    "materials" : [
        {
            "doubleSided" : true,
            "emissiveFactor" : [
                0,
                0,
                0
            ],
            "name" : "Default OBJ.086",
            "pbrMetallicRoughness" : {
                "baseColorFactor" : [
                    0.800000011920929,
                    0.800000011920929,
                    0.800000011920929,
                    1
                ],
                "metallicFactor" : 0,
                "roughnessFactor" : 0.5
            }
        }
    ],
    "meshes" : [
        {
            "name" : "fit_NormalFitStraight",
            "primitives" : [
                {
                    "attributes" : {
                        "POSITION" : 0,
                        "NORMAL" : 1,
                        "TEXCOORD_0" : 2
                    },
                    "indices" : 3,
                    "material" : 0
                }
            ]
        }
    ],
    "accessors" : [
        {
            "bufferView" : 0,
            "componentType" : 5126,
            "count" : 2028,
            "max" : [
                2.2033495903015137,
                1.2758673429489136,
                3.3001461029052734
            ],
            "min" : [
                -2.1200575828552246,
                -1.2945576906204224,
                -3.033217430114746
            ],
            "type" : "VEC3"
        },
        {
            "bufferView" : 1,
            "componentType" : 5126,
            "count" : 2028,
            "type" : "VEC3"
        },
        {
            "bufferView" : 2,
            "componentType" : 5126,
            "count" : 2028,
            "type" : "VEC2"
        },
        {
            "bufferView" : 3,
            "componentType" : 5123,
            "count" : 11001,
            "type" : "SCALAR"
        }
    ],
    "bufferViews" : [
        {
            "buffer" : 0,
            "byteLength" : 24336,
            "byteOffset" : 0
        },
        {
            "buffer" : 0,
            "byteLength" : 24336,
            "byteOffset" : 24336
        },
        {
            "buffer" : 0,
            "byteLength" : 16224,
            "byteOffset" : 48672
        },
        {
            "buffer" : 0,
            "byteLength" : 22002,
            "byteOffset" : 64896
        }
    ],
    "buffers" : [
        {
            "byteLength" : 86900,
            "uri" : "fit_NormalFitStraight.bin"
        }
    ]
}
