{
    "asset" : {
        "generator" : "Khronos glTF Blender I/O v1.6.16",
        "version" : "2.0"
    },
    "scene" : 0,
    "scenes" : [
        {
            "name" : "SoftbodyCache_001",
            "nodes" : [
                3,
                5,
                9,
                13,
                15
            ]
        }
    ],
    "nodes" : [
        {
            "mesh" : 0,
            "name" : "businessClassic",
            "translation" : [
                0.00013984087854623795,
                3.1762351989746094,
                0.07038654386997223
            ]
        },
        {
            "mesh" : 1,
            "name" : "businessClassicBtn"
        },
        {
            "mesh" : 2,
            "name" : "businessClassicHole"
        },
        {
            "children" : [
                0,
                1,
                2
            ],
            "name" : "collar"
        },
        {
            "mesh" : 3,
            "name" : "sleeveShort",
            "translation" : [
                0.0006250165752135217,
                1.1852786540985107,
                -0.3053509294986725
            ]
        },
        {
            "children" : [
                4
            ],
            "name" : "sleeves"
        },
        {
            "mesh" : 4,
            "name" : "placketNarrow",
            "translation" : [
                -0.004880042281001806,
                0.09902480244636536,
                0.729766309261322
            ]
        },
        {
            "mesh" : 5,
            "name" : "placketNarrowBtns",
            "translation" : [
                -0.0534714050590992,
                0.36626625061035156,
                1.178855538368225
            ]
        },
        {
            "mesh" : 6,
            "name" : "placketNarrowThreads",
            "translation" : [
                -0.0534714050590992,
                0.36626625061035156,
                1.178855538368225
            ]
        },
        {
            "children" : [
                6,
                7,
                8
            ],
            "name" : "placket"
        },
        {
            "mesh" : 7,
            "name" : "backLower",
            "translation" : [
                -0.0019549222197383642,
                -0.5793120265007019,
                -0.8473756313323975
            ]
        },
        {
            "mesh" : 8,
            "name" : "backUpper",
            "translation" : [
                6.181737990118563e-05,
                2.6424896717071533,
                -0.7757218480110168
            ]
        },
        {
            "mesh" : 9,
            "name" : "fitClassic",
            "translation" : [
                -0.004880042281001806,
                0.09902480244636536,
                0.729766309261322
            ]
        },
        {
            "children" : [
                10,
                11,
                12
            ],
            "name" : "body"
        },
        {
            "mesh" : 10,
            "name" : "vShaped",
            "translation" : [
                -0.024599505588412285,
                1.3162448406219482,
                1.115717887878418
            ]
        },
        {
            "children" : [
                14
            ],
            "name" : "pockets"
        }
    ],
    "materials" : [
        {
            "doubleSided" : true,
            "name" : "FabricPattern",
            "pbrMetallicRoughness" : {
                "baseColorTexture" : {
                    "index" : 0
                },
                "metallicFactor" : 0,
                "roughnessFactor" : 0.5
            }
        },
        {
            "doubleSided" : true,
            "name" : "White",
            "pbrMetallicRoughness" : {
                "baseColorFactor" : [
                    0.800000011920929,
                    0.800000011920929,
                    0.800000011920929,
                    1
                ],
                "metallicFactor" : 0,
                "roughnessFactor" : 0.5240000486373901
            }
        }
    ],
    "meshes" : [
        {
            "name" : "Cube.001",
            "primitives" : [
                {
                    "attributes" : {
                        "POSITION" : 0,
                        "NORMAL" : 1,
                        "TEXCOORD_0" : 2
                    },
                    "indices" : 3,
                    "material" : 0
                }
            ]
        },
        {
            "name" : "placket_Narrow_Hole.003",
            "primitives" : [
                {
                    "attributes" : {
                        "POSITION" : 4,
                        "NORMAL" : 5
                    },
                    "indices" : 6,
                    "material" : 1
                }
            ]
        },
        {
            "name" : "placket_Narrow_Hole.004",
            "primitives" : [
                {
                    "attributes" : {
                        "POSITION" : 7,
                        "NORMAL" : 8
                    },
                    "indices" : 9,
                    "material" : 1
                }
            ]
        },
        {
            "name" : "Cube.002",
            "primitives" : [
                {
                    "attributes" : {
                        "POSITION" : 10,
                        "NORMAL" : 11,
                        "TEXCOORD_0" : 12
                    },
                    "indices" : 13,
                    "material" : 0
                }
            ]
        },
        {
            "name" : "Cube.003",
            "primitives" : [
                {
                    "attributes" : {
                        "POSITION" : 14,
                        "NORMAL" : 15,
                        "TEXCOORD_0" : 16
                    },
                    "indices" : 17,
                    "material" : 0
                }
            ]
        },
        {
            "name" : "placket_Narrow_Hole.005",
            "primitives" : [
                {
                    "attributes" : {
                        "POSITION" : 18,
                        "NORMAL" : 19
                    },
                    "indices" : 20,
                    "material" : 1
                }
            ]
        },
        {
            "name" : "placket_Narrow_Hole.002",
            "primitives" : [
                {
                    "attributes" : {
                        "POSITION" : 21,
                        "NORMAL" : 22
                    },
                    "indices" : 23,
                    "material" : 1
                }
            ]
        },
        {
            "name" : "Cube.005",
            "primitives" : [
                {
                    "attributes" : {
                        "POSITION" : 24,
                        "NORMAL" : 25,
                        "TEXCOORD_0" : 26
                    },
                    "indices" : 27,
                    "material" : 0
                }
            ]
        },
        {
            "name" : "Cube.004",
            "primitives" : [
                {
                    "attributes" : {
                        "POSITION" : 28,
                        "NORMAL" : 29,
                        "TEXCOORD_0" : 30
                    },
                    "indices" : 31,
                    "material" : 0
                }
            ]
        },
        {
            "name" : "Cube.006",
            "primitives" : [
                {
                    "attributes" : {
                        "POSITION" : 32,
                        "NORMAL" : 33,
                        "TEXCOORD_0" : 34
                    },
                    "indices" : 35,
                    "material" : 0
                }
            ]
        },
        {
            "name" : "Cube.007",
            "primitives" : [
                {
                    "attributes" : {
                        "POSITION" : 36,
                        "NORMAL" : 37,
                        "TEXCOORD_0" : 38
                    },
                    "indices" : 39,
                    "material" : 0
                }
            ]
        }
    ],
    "textures" : [
        {
            "sampler" : 0,
            "source" : 0
        }
    ],
    "images" : [
        {
            "bufferView" : 4,
            "mimeType" : "image/jpeg",
            "name" : "Floral_PAttern_Diff_D.jpg"
        }
    ],
    "accessors" : [
        {
            "bufferView" : 0,
            "componentType" : 5126,
            "count" : 7648,
            "max" : [
                0.8726963400840759,
                0.3798086643218994,
                0.8929310441017151
            ],
            "min" : [
                -0.8726153373718262,
                -0.5915058851242065,
                -0.7682956457138062
            ],
            "type" : "VEC3"
        },
        {
            "bufferView" : 1,
            "componentType" : 5126,
            "count" : 7648,
            "type" : "VEC3"
        },
        {
            "bufferView" : 2,
            "componentType" : 5126,
            "count" : 7648,
            "type" : "VEC2"
        },
        {
            "bufferView" : 3,
            "componentType" : 5123,
            "count" : 34080,
            "type" : "SCALAR"
        },
        {
            "bufferView" : 5,
            "componentType" : 5126,
            "count" : 1668,
            "max" : [
                -0.24117517471313477,
                3.0018036365509033,
                0.8641269207000732
            ],
            "min" : [
                -0.33320653438568115,
                2.898174524307251,
                0.7968951463699341
            ],
            "type" : "VEC3"
        },
        {
            "bufferView" : 6,
            "componentType" : 5126,
            "count" : 1668,
            "type" : "VEC3"
        },
        {
            "bufferView" : 7,
            "componentType" : 5123,
            "count" : 9846,
            "type" : "SCALAR"
        },
        {
            "bufferView" : 8,
            "componentType" : 5126,
            "count" : 336,
            "max" : [
                0.2778927683830261,
                2.966479778289795,
                0.93115234375
            ],
            "min" : [
                0.1581176519393921,
                2.918067216873169,
                0.8477243185043335
            ],
            "type" : "VEC3"
        },
        {
            "bufferView" : 9,
            "componentType" : 5126,
            "count" : 336,
            "type" : "VEC3"
        },
        {
            "bufferView" : 10,
            "componentType" : 5123,
            "count" : 1260,
            "type" : "SCALAR"
        },
        {
            "bufferView" : 11,
            "componentType" : 5126,
            "count" : 10279,
            "max" : [
                2.6976513862609863,
                1.3555612564086914,
                0.6998873949050903
            ],
            "min" : [
                -2.6989033222198486,
                -1.0622197389602661,
                -0.6874292492866516
            ],
            "type" : "VEC3"
        },
        {
            "bufferView" : 12,
            "componentType" : 5126,
            "count" : 10279,
            "type" : "VEC3"
        },
        {
            "bufferView" : 13,
            "componentType" : 5126,
            "count" : 10279,
            "type" : "VEC2"
        },
        {
            "bufferView" : 14,
            "componentType" : 5123,
            "count" : 45504,
            "type" : "SCALAR"
        },
        {
            "bufferView" : 15,
            "componentType" : 5126,
            "count" : 6611,
            "max" : [
                0.31120583415031433,
                2.7967851161956787,
                0.5868992805480957
            ],
            "min" : [
                -0.35788315534591675,
                -3.180213212966919,
                0.006281244568526745
            ],
            "type" : "VEC3"
        },
        {
            "bufferView" : 16,
            "componentType" : 5126,
            "count" : 6611,
            "type" : "VEC3"
        },
        {
            "bufferView" : 17,
            "componentType" : 5126,
            "count" : 6611,
            "type" : "VEC2"
        },
        {
            "bufferView" : 18,
            "componentType" : 5123,
            "count" : 31968,
            "type" : "SCALAR"
        },
        {
            "bufferView" : 19,
            "componentType" : 5126,
            "count" : 10010,
            "max" : [
                0.08918915688991547,
                1.9865204095840454,
                0.15238280594348907
            ],
            "min" : [
                -0.043042778968811035,
                -2.6631994247436523,
                -0.21261459589004517
            ],
            "type" : "VEC3"
        },
        {
            "bufferView" : 20,
            "componentType" : 5126,
            "count" : 10010,
            "type" : "VEC3"
        },
        {
            "bufferView" : 21,
            "componentType" : 5123,
            "count" : 60312,
            "type" : "SCALAR"
        },
        {
            "bufferView" : 22,
            "componentType" : 5126,
            "count" : 3828,
            "max" : [
                0.0562446266412735,
                2.009700298309326,
                0.1528807431459427
            ],
            "min" : [
                -0.015263225883245468,
                -2.6890811920166016,
                -0.23757773637771606
            ],
            "type" : "VEC3"
        },
        {
            "bufferView" : 23,
            "componentType" : 5126,
            "count" : 3828,
            "type" : "VEC3"
        },
        {
            "bufferView" : 24,
            "componentType" : 5123,
            "count" : 16617,
            "type" : "SCALAR"
        },
        {
            "bufferView" : 25,
            "componentType" : 5126,
            "count" : 5182,
            "max" : [
                1.7943814992904663,
                2.7521889209747314,
                0.7836117744445801
            ],
            "min" : [
                -1.791290283203125,
                -3.0020315647125244,
                -0.4384158253669739
            ],
            "type" : "VEC3"
        },
        {
            "bufferView" : 26,
            "componentType" : 5126,
            "count" : 5182,
            "type" : "VEC3"
        },
        {
            "bufferView" : 27,
            "componentType" : 5126,
            "count" : 5182,
            "type" : "VEC2"
        },
        {
            "bufferView" : 28,
            "componentType" : 5123,
            "count" : 23904,
            "type" : "SCALAR"
        },
        {
            "bufferView" : 29,
            "componentType" : 5126,
            "count" : 2727,
            "max" : [
                2.096982002258301,
                0.5600936412811279,
                0.5436370968818665
            ],
            "min" : [
                -2.09060001373291,
                -0.5299529433250427,
                -0.3862411379814148
            ],
            "type" : "VEC3"
        },
        {
            "bufferView" : 30,
            "componentType" : 5126,
            "count" : 2727,
            "type" : "VEC3"
        },
        {
            "bufferView" : 31,
            "componentType" : 5126,
            "count" : 2727,
            "type" : "VEC2"
        },
        {
            "bufferView" : 32,
            "componentType" : 5123,
            "count" : 12192,
            "type" : "SCALAR"
        },
        {
            "bufferView" : 33,
            "componentType" : 5126,
            "count" : 8668,
            "max" : [
                2.1490254402160645,
                3.0661842823028564,
                0.5626054406166077
            ],
            "min" : [
                -2.1381332874298096,
                -3.168384075164795,
                -1.149229884147644
            ],
            "type" : "VEC3"
        },
        {
            "bufferView" : 34,
            "componentType" : 5126,
            "count" : 8668,
            "type" : "VEC3"
        },
        {
            "bufferView" : 35,
            "componentType" : 5126,
            "count" : 8668,
            "type" : "VEC2"
        },
        {
            "bufferView" : 36,
            "componentType" : 5123,
            "count" : 37968,
            "type" : "SCALAR"
        },
        {
            "bufferView" : 37,
            "componentType" : 5126,
            "count" : 8675,
            "max" : [
                1.3665810823440552,
                0.5302070379257202,
                0.21638882160186768
            ],
            "min" : [
                -1.423207402229309,
                -0.5390710234642029,
                -0.3429025411605835
            ],
            "type" : "VEC3"
        },
        {
            "bufferView" : 38,
            "componentType" : 5126,
            "count" : 8675,
            "type" : "VEC3"
        },
        {
            "bufferView" : 39,
            "componentType" : 5126,
            "count" : 8675,
            "type" : "VEC2"
        },
        {
            "bufferView" : 40,
            "componentType" : 5123,
            "count" : 35904,
            "type" : "SCALAR"
        }
    ],
    "bufferViews" : [
        {
            "buffer" : 0,
            "byteLength" : 91776,
            "byteOffset" : 0
        },
        {
            "buffer" : 0,
            "byteLength" : 91776,
            "byteOffset" : 91776
        },
        {
            "buffer" : 0,
            "byteLength" : 61184,
            "byteOffset" : 183552
        },
        {
            "buffer" : 0,
            "byteLength" : 68160,
            "byteOffset" : 244736
        },
        {
            "buffer" : 0,
            "byteLength" : 114037,
            "byteOffset" : 312896
        },
        {
            "buffer" : 0,
            "byteLength" : 20016,
            "byteOffset" : 426936
        },
        {
            "buffer" : 0,
            "byteLength" : 20016,
            "byteOffset" : 446952
        },
        {
            "buffer" : 0,
            "byteLength" : 19692,
            "byteOffset" : 466968
        },
        {
            "buffer" : 0,
            "byteLength" : 4032,
            "byteOffset" : 486660
        },
        {
            "buffer" : 0,
            "byteLength" : 4032,
            "byteOffset" : 490692
        },
        {
            "buffer" : 0,
            "byteLength" : 2520,
            "byteOffset" : 494724
        },
        {
            "buffer" : 0,
            "byteLength" : 123348,
            "byteOffset" : 497244
        },
        {
            "buffer" : 0,
            "byteLength" : 123348,
            "byteOffset" : 620592
        },
        {
            "buffer" : 0,
            "byteLength" : 82232,
            "byteOffset" : 743940
        },
        {
            "buffer" : 0,
            "byteLength" : 91008,
            "byteOffset" : 826172
        },
        {
            "buffer" : 0,
            "byteLength" : 79332,
            "byteOffset" : 917180
        },
        {
            "buffer" : 0,
            "byteLength" : 79332,
            "byteOffset" : 996512
        },
        {
            "buffer" : 0,
            "byteLength" : 52888,
            "byteOffset" : 1075844
        },
        {
            "buffer" : 0,
            "byteLength" : 63936,
            "byteOffset" : 1128732
        },
        {
            "buffer" : 0,
            "byteLength" : 120120,
            "byteOffset" : 1192668
        },
        {
            "buffer" : 0,
            "byteLength" : 120120,
            "byteOffset" : 1312788
        },
        {
            "buffer" : 0,
            "byteLength" : 120624,
            "byteOffset" : 1432908
        },
        {
            "buffer" : 0,
            "byteLength" : 45936,
            "byteOffset" : 1553532
        },
        {
            "buffer" : 0,
            "byteLength" : 45936,
            "byteOffset" : 1599468
        },
        {
            "buffer" : 0,
            "byteLength" : 33234,
            "byteOffset" : 1645404
        },
        {
            "buffer" : 0,
            "byteLength" : 62184,
            "byteOffset" : 1678640
        },
        {
            "buffer" : 0,
            "byteLength" : 62184,
            "byteOffset" : 1740824
        },
        {
            "buffer" : 0,
            "byteLength" : 41456,
            "byteOffset" : 1803008
        },
        {
            "buffer" : 0,
            "byteLength" : 47808,
            "byteOffset" : 1844464
        },
        {
            "buffer" : 0,
            "byteLength" : 32724,
            "byteOffset" : 1892272
        },
        {
            "buffer" : 0,
            "byteLength" : 32724,
            "byteOffset" : 1924996
        },
        {
            "buffer" : 0,
            "byteLength" : 21816,
            "byteOffset" : 1957720
        },
        {
            "buffer" : 0,
            "byteLength" : 24384,
            "byteOffset" : 1979536
        },
        {
            "buffer" : 0,
            "byteLength" : 104016,
            "byteOffset" : 2003920
        },
        {
            "buffer" : 0,
            "byteLength" : 104016,
            "byteOffset" : 2107936
        },
        {
            "buffer" : 0,
            "byteLength" : 69344,
            "byteOffset" : 2211952
        },
        {
            "buffer" : 0,
            "byteLength" : 75936,
            "byteOffset" : 2281296
        },
        {
            "buffer" : 0,
            "byteLength" : 104100,
            "byteOffset" : 2357232
        },
        {
            "buffer" : 0,
            "byteLength" : 104100,
            "byteOffset" : 2461332
        },
        {
            "buffer" : 0,
            "byteLength" : 69400,
            "byteOffset" : 2565432
        },
        {
            "buffer" : 0,
            "byteLength" : 71808,
            "byteOffset" : 2634832
        }
    ],
    "samplers" : [
        {
            "magFilter" : 9729,
            "minFilter" : 9987
        }
    ],
    "buffers" : [
        {
            "byteLength" : 2706640,
            "uri" : "data:application/octet-stream;base64,"
        }
    ]
}
