{
    "asset" : {
        "generator" : "Khronos glTF Blender I/O v1.6.16",
        "version" : "2.0"
    },
    "scene" : 0,
    "scenes" : [
        {
            "name" : "Scene",
            "nodes" : [
                3,
                7,
                9,
                11,
                13,
                15
            ]
        }
    ],
    "nodes" : [
        {
            "mesh" : 0,
            "name" : "collar_BusinessClassic",
            "rotation" : [
                0.7071068286895752,
                0,
                0,
                0.7071067094802856
            ],
            "translation" : [
                0,
                -13.412140846252441,
                0
            ]
        },
        {
            "mesh" : 1,
            "name" : "collar_BusinessClassic_Btn",
            "rotation" : [
                0.7071068286895752,
                0,
                0,
                0.7071067094802856
            ],
            "translation" : [
                0,
                -13.412140846252441,
                0
            ]
        },
        {
            "mesh" : 2,
            "name" : "collar_BusinessClassic_Hole",
            "rotation" : [
                0.7071068286895752,
                0,
                0,
                0.7071067094802856
            ],
            "translation" : [
                0,
                -13.412140846252441,
                0
            ]
        },
        {
            "children" : [
                0,
                1,
                2
            ],
            "name" : "collar"
        },
        {
            "mesh" : 3,
            "name" : "placket_Narrow_Btn",
            "rotation" : [
                0.7071068286895752,
                0,
                0,
                0.7071067094802856
            ],
            "translation" : [
                0,
                -13.3994140625,
                0
            ]
        },
        {
            "mesh" : 4,
            "name" : "placket_Narrow_Hole",
            "rotation" : [
                0.7071068286895752,
                0,
                0,
                0.7071067094802856
            ],
            "translation" : [
                0,
                -13.3994140625,
                0
            ]
        },
        {
            "mesh" : 5,
            "name" : "placket_WithoutPlacket",
            "rotation" : [
                0.7071068286895752,
                0,
                0,
                0.7071067094802856
            ],
            "translation" : [
                0,
                -13.3994140625,
                0
            ]
        },
        {
            "children" : [
                4,
                5,
                6
            ],
            "name" : "placket"
        },
        {
            "mesh" : 6,
            "name" : "sleeve_Short",
            "rotation" : [
                0.7071068286895752,
                0,
                0,
                0.7071067094802856
            ],
            "translation" : [
                0,
                -13.3994140625,
                0
            ]
        },
        {
            "children" : [
                8
            ],
            "name" : "sleeves"
        },
        {
            "mesh" : 7,
            "name" : "shoulder_back",
            "rotation" : [
                0.7071068286895752,
                0,
                0,
                0.7071067094802856
            ],
            "translation" : [
                0,
                -13.3994140625,
                0
            ]
        },
        {
            "children" : [
                10
            ],
            "name" : "shoulderBack"
        },
        {
            "mesh" : 8,
            "name" : "fit_BodyFitClassic",
            "rotation" : [
                0.7071068286895752,
                0,
                0,
                0.7071067094802856
            ],
            "translation" : [
                0,
                -13.3994140625,
                0
            ]
        },
        {
            "children" : [
                12
            ],
            "name" : "fit"
        },
        {
            "mesh" : 9,
            "name" : "pocket_Vshaped",
            "rotation" : [
                0.7071068286895752,
                0,
                0,
                0.7071067094802856
            ],
            "translation" : [
                -0.048689328134059906,
                1.2965192794799805,
                1.0822359323501587
            ]
        },
        {
            "children" : [
                14
            ],
            "name" : "pocket"
        }
    ],
    "materials" : [
        {
            "doubleSided" : true,
            "name" : "Collar",
            "pbrMetallicRoughness" : {
                "baseColorFactor" : [
                    0.800000011920929,
                    0.800000011920929,
                    0.800000011920929,
                    1
                ],
                "metallicFactor" : 0,
                "roughnessFactor" : 0.5
            }
        },
        {
            "doubleSided" : true,
            "name" : "Button",
            "pbrMetallicRoughness" : {
                "baseColorFactor" : [
                    0.800000011920929,
                    0.800000011920929,
                    0.800000011920929,
                    1
                ],
                "metallicFactor" : 0,
                "roughnessFactor" : 0.5
            }
        },
        {
            "doubleSided" : true,
            "name" : "Thread",
            "pbrMetallicRoughness" : {}
        },
        {
            "doubleSided" : true,
            "name" : "plaket",
            "pbrMetallicRoughness" : {
                "baseColorFactor" : [
                    0.800000011920929,
                    0.800000011920929,
                    0.800000011920929,
                    1
                ],
                "metallicFactor" : 0,
                "roughnessFactor" : 0.5
            }
        },
        {
            "doubleSided" : true,
            "name" : "Short-Sleeve",
            "pbrMetallicRoughness" : {
                "baseColorFactor" : [
                    0.800000011920929,
                    0.800000011920929,
                    0.800000011920929,
                    1
                ],
                "metallicFactor" : 0,
                "roughnessFactor" : 0.5
            }
        },
        {
            "doubleSided" : true,
            "name" : "Material",
            "pbrMetallicRoughness" : {
                "baseColorTexture" : {
                    "index" : 0
                },
                "metallicFactor" : 0,
                "roughnessFactor" : 0.5
            }
        },
        {
            "doubleSided" : true,
            "name" : "Body",
            "pbrMetallicRoughness" : {
                "baseColorTexture" : {
                    "index" : 1
                },
                "metallicFactor" : 0,
                "roughnessFactor" : 0.5
            }
        }
    ],
    "meshes" : [
        {
            "name" : "collar_BusinessClassic.001",
            "primitives" : [
                {
                    "attributes" : {
                        "POSITION" : 0,
                        "NORMAL" : 1,
                        "TEXCOORD_0" : 2
                    },
                    "indices" : 3,
                    "material" : 0
                }
            ]
        },
        {
            "name" : "collar_BusinessClassic_Btn.001",
            "primitives" : [
                {
                    "attributes" : {
                        "POSITION" : 4,
                        "NORMAL" : 5
                    },
                    "indices" : 6
                }
            ]
        },
        {
            "name" : "collar_BusinessClassic_Hole.001",
            "primitives" : [
                {
                    "attributes" : {
                        "POSITION" : 7,
                        "NORMAL" : 8
                    },
                    "indices" : 9
                }
            ]
        },
        {
            "name" : "placket_Narrow_Btn",
            "primitives" : [
                {
                    "attributes" : {
                        "POSITION" : 10,
                        "NORMAL" : 11
                    },
                    "indices" : 12,
                    "material" : 1
                }
            ]
        },
        {
            "name" : "placket_Narrow_Hole",
            "primitives" : [
                {
                    "attributes" : {
                        "POSITION" : 13,
                        "NORMAL" : 14
                    },
                    "indices" : 15,
                    "material" : 2
                }
            ]
        },
        {
            "name" : "placket_WithoutPlacket",
            "primitives" : [
                {
                    "attributes" : {
                        "POSITION" : 16,
                        "NORMAL" : 17,
                        "TEXCOORD_0" : 18
                    },
                    "indices" : 19,
                    "material" : 3
                }
            ]
        },
        {
            "name" : "sleeve_Short",
            "primitives" : [
                {
                    "attributes" : {
                        "POSITION" : 20,
                        "NORMAL" : 21,
                        "TEXCOORD_0" : 22
                    },
                    "indices" : 23,
                    "material" : 4
                }
            ]
        },
        {
            "name" : "shoulder_back",
            "primitives" : [
                {
                    "attributes" : {
                        "POSITION" : 24,
                        "NORMAL" : 25,
                        "TEXCOORD_0" : 26
                    },
                    "indices" : 27,
                    "material" : 5
                }
            ]
        },
        {
            "name" : "fit_BodyFitClassic",
            "primitives" : [
                {
                    "attributes" : {
                        "POSITION" : 28,
                        "NORMAL" : 29,
                        "TEXCOORD_0" : 30
                    },
                    "indices" : 31,
                    "material" : 6
                }
            ]
        },
        {
            "name" : "pocket_Vshaped_Poc",
            "primitives" : [
                {
                    "attributes" : {
                        "POSITION" : 32,
                        "NORMAL" : 33,
                        "TEXCOORD_0" : 34
                    },
                    "indices" : 35,
                    "material" : 5
                }
            ]
        }
    ],
    "textures" : [
        {
            "sampler" : 0,
            "source" : 0
        },
        {
            "sampler" : 0,
            "source" : 0
        }
    ],
    "images" : [
        {
            "bufferView" : 28,
            "mimeType" : "image/jpeg",
            "name" : "blackFill"
        }
    ],
    "accessors" : [
        {
            "bufferView" : 0,
            "componentType" : 5126,
            "count" : 5225,
            "max" : [
                0.8619325160980225,
                0.9404653310775757,
                -15.91789436340332
            ],
            "min" : [
                -0.9230919480323792,
                -0.6861932277679443,
                -16.954456329345703
            ],
            "type" : "VEC3"
        },
        {
            "bufferView" : 1,
            "componentType" : 5126,
            "count" : 5225,
            "type" : "VEC3"
        },
        {
            "bufferView" : 2,
            "componentType" : 5126,
            "count" : 5225,
            "type" : "VEC2"
        },
        {
            "bufferView" : 3,
            "componentType" : 5123,
            "count" : 30057,
            "type" : "SCALAR"
        },
        {
            "bufferView" : 4,
            "componentType" : 5126,
            "count" : 1444,
            "max" : [
                -0.23575158417224884,
                0.889320433139801,
                -16.27483367919922
            ],
            "min" : [
                -0.3386728763580322,
                0.8115156888961792,
                -16.384244918823242
            ],
            "type" : "VEC3"
        },
        {
            "bufferView" : 5,
            "componentType" : 5126,
            "count" : 1444,
            "type" : "VEC3"
        },
        {
            "bufferView" : 6,
            "componentType" : 5123,
            "count" : 8694,
            "type" : "SCALAR"
        },
        {
            "bufferView" : 7,
            "componentType" : 5126,
            "count" : 560,
            "max" : [
                0.2827339470386505,
                0.9107979536056519,
                -16.307693481445312
            ],
            "min" : [
                -0.30775386095046997,
                0.8124284744262695,
                -16.373065948486328
            ],
            "type" : "VEC3"
        },
        {
            "bufferView" : 8,
            "componentType" : 5126,
            "count" : 560,
            "type" : "VEC3"
        },
        {
            "bufferView" : 9,
            "componentType" : 5123,
            "count" : 2412,
            "type" : "SCALAR"
        },
        {
            "bufferView" : 10,
            "componentType" : 5126,
            "count" : 10010,
            "max" : [
                0.0406290702521801,
                1.31633722782135,
                -11.102481842041016
            ],
            "min" : [
                -0.09592262655496597,
                0.8931087851524353,
                -15.746118545532227
            ],
            "type" : "VEC3"
        },
        {
            "bufferView" : 11,
            "componentType" : 5126,
            "count" : 10010,
            "type" : "VEC3"
        },
        {
            "bufferView" : 12,
            "componentType" : 5123,
            "count" : 60312,
            "type" : "SCALAR"
        },
        {
            "bufferView" : 13,
            "componentType" : 5126,
            "count" : 3802,
            "max" : [
                0.010150882415473461,
                1.3171875476837158,
                -11.076600074768066
            ],
            "min" : [
                -0.0693705677986145,
                0.8768508434295654,
                -15.76746654510498
            ],
            "type" : "VEC3"
        },
        {
            "bufferView" : 14,
            "componentType" : 5126,
            "count" : 3802,
            "type" : "VEC3"
        },
        {
            "bufferView" : 15,
            "componentType" : 5123,
            "count" : 16464,
            "type" : "SCALAR"
        },
        {
            "bufferView" : 16,
            "componentType" : 5126,
            "count" : 6424,
            "max" : [
                0.2823466658592224,
                1.3141688108444214,
                -10.31373405456543
            ],
            "min" : [
                -0.3517739772796631,
                0.7422571778297424,
                -16.28795623779297
            ],
            "type" : "VEC3"
        },
        {
            "bufferView" : 17,
            "componentType" : 5126,
            "count" : 6424,
            "type" : "VEC3"
        },
        {
            "bufferView" : 18,
            "componentType" : 5126,
            "count" : 6424,
            "type" : "VEC2"
        },
        {
            "bufferView" : 19,
            "componentType" : 5123,
            "count" : 36864,
            "type" : "SCALAR"
        },
        {
            "bufferView" : 20,
            "componentType" : 5126,
            "count" : 9178,
            "max" : [
                2.682020425796509,
                0.3635391592979431,
                -13.48917293548584
            ],
            "min" : [
                -2.9055376052856445,
                -1.137580394744873,
                -15.949214935302734
            ],
            "type" : "VEC3"
        },
        {
            "bufferView" : 21,
            "componentType" : 5126,
            "count" : 9178,
            "type" : "VEC3"
        },
        {
            "bufferView" : 22,
            "componentType" : 5126,
            "count" : 9178,
            "type" : "VEC2"
        },
        {
            "bufferView" : 23,
            "componentType" : 5123,
            "count" : 46443,
            "type" : "SCALAR"
        },
        {
            "bufferView" : 24,
            "componentType" : 5126,
            "count" : 516,
            "max" : [
                2.0952084064483643,
                -0.27449876070022583,
                -15.501096725463867
            ],
            "min" : [
                -2.129523277282715,
                -1.1210172176361084,
                -16.6370849609375
            ],
            "type" : "VEC3"
        },
        {
            "bufferView" : 25,
            "componentType" : 5126,
            "count" : 516,
            "type" : "VEC3"
        },
        {
            "bufferView" : 26,
            "componentType" : 5126,
            "count" : 516,
            "type" : "VEC2"
        },
        {
            "bufferView" : 27,
            "componentType" : 5123,
            "count" : 2763,
            "type" : "SCALAR"
        },
        {
            "bufferView" : 29,
            "componentType" : 5126,
            "count" : 2438,
            "max" : [
                2.135451555252075,
                1.3043917417526245,
                -9.79973316192627
            ],
            "min" : [
                -2.190276622772217,
                -1.263527274131775,
                -16.59737205505371
            ],
            "type" : "VEC3"
        },
        {
            "bufferView" : 30,
            "componentType" : 5126,
            "count" : 2438,
            "type" : "VEC3"
        },
        {
            "bufferView" : 31,
            "componentType" : 5126,
            "count" : 2438,
            "type" : "VEC2"
        },
        {
            "bufferView" : 32,
            "componentType" : 5123,
            "count" : 13443,
            "type" : "SCALAR"
        },
        {
            "bufferView" : 33,
            "componentType" : 5126,
            "count" : 2100,
            "max" : [
                1.3609600067138672,
                0.22574305534362793,
                0.5277929306030273
            ],
            "min" : [
                -1.3461408615112305,
                -0.34608304500579834,
                -0.5295467376708984
            ],
            "type" : "VEC3"
        },
        {
            "bufferView" : 34,
            "componentType" : 5126,
            "count" : 2100,
            "type" : "VEC3"
        },
        {
            "bufferView" : 35,
            "componentType" : 5126,
            "count" : 2100,
            "type" : "VEC2"
        },
        {
            "bufferView" : 36,
            "componentType" : 5123,
            "count" : 11280,
            "type" : "SCALAR"
        }
    ],
    "bufferViews" : [
        {
            "buffer" : 0,
            "byteLength" : 62700,
            "byteOffset" : 0
        },
        {
            "buffer" : 0,
            "byteLength" : 62700,
            "byteOffset" : 62700
        },
        {
            "buffer" : 0,
            "byteLength" : 41800,
            "byteOffset" : 125400
        },
        {
            "buffer" : 0,
            "byteLength" : 60114,
            "byteOffset" : 167200
        },
        {
            "buffer" : 0,
            "byteLength" : 17328,
            "byteOffset" : 227316
        },
        {
            "buffer" : 0,
            "byteLength" : 17328,
            "byteOffset" : 244644
        },
        {
            "buffer" : 0,
            "byteLength" : 17388,
            "byteOffset" : 261972
        },
        {
            "buffer" : 0,
            "byteLength" : 6720,
            "byteOffset" : 279360
        },
        {
            "buffer" : 0,
            "byteLength" : 6720,
            "byteOffset" : 286080
        },
        {
            "buffer" : 0,
            "byteLength" : 4824,
            "byteOffset" : 292800
        },
        {
            "buffer" : 0,
            "byteLength" : 120120,
            "byteOffset" : 297624
        },
        {
            "buffer" : 0,
            "byteLength" : 120120,
            "byteOffset" : 417744
        },
        {
            "buffer" : 0,
            "byteLength" : 120624,
            "byteOffset" : 537864
        },
        {
            "buffer" : 0,
            "byteLength" : 45624,
            "byteOffset" : 658488
        },
        {
            "buffer" : 0,
            "byteLength" : 45624,
            "byteOffset" : 704112
        },
        {
            "buffer" : 0,
            "byteLength" : 32928,
            "byteOffset" : 749736
        },
        {
            "buffer" : 0,
            "byteLength" : 77088,
            "byteOffset" : 782664
        },
        {
            "buffer" : 0,
            "byteLength" : 77088,
            "byteOffset" : 859752
        },
        {
            "buffer" : 0,
            "byteLength" : 51392,
            "byteOffset" : 936840
        },
        {
            "buffer" : 0,
            "byteLength" : 73728,
            "byteOffset" : 988232
        },
        {
            "buffer" : 0,
            "byteLength" : 110136,
            "byteOffset" : 1061960
        },
        {
            "buffer" : 0,
            "byteLength" : 110136,
            "byteOffset" : 1172096
        },
        {
            "buffer" : 0,
            "byteLength" : 73424,
            "byteOffset" : 1282232
        },
        {
            "buffer" : 0,
            "byteLength" : 92886,
            "byteOffset" : 1355656
        },
        {
            "buffer" : 0,
            "byteLength" : 6192,
            "byteOffset" : 1448544
        },
        {
            "buffer" : 0,
            "byteLength" : 6192,
            "byteOffset" : 1454736
        },
        {
            "buffer" : 0,
            "byteLength" : 4128,
            "byteOffset" : 1460928
        },
        {
            "buffer" : 0,
            "byteLength" : 5526,
            "byteOffset" : 1465056
        },
        {
            "buffer" : 0,
            "byteLength" : 198313,
            "byteOffset" : 1470584
        },
        {
            "buffer" : 0,
            "byteLength" : 29256,
            "byteOffset" : 1668900
        },
        {
            "buffer" : 0,
            "byteLength" : 29256,
            "byteOffset" : 1698156
        },
        {
            "buffer" : 0,
            "byteLength" : 19504,
            "byteOffset" : 1727412
        },
        {
            "buffer" : 0,
            "byteLength" : 26886,
            "byteOffset" : 1746916
        },
        {
            "buffer" : 0,
            "byteLength" : 25200,
            "byteOffset" : 1773804
        },
        {
            "buffer" : 0,
            "byteLength" : 25200,
            "byteOffset" : 1799004
        },
        {
            "buffer" : 0,
            "byteLength" : 16800,
            "byteOffset" : 1824204
        },
        {
            "buffer" : 0,
            "byteLength" : 22560,
            "byteOffset" : 1841004
        }
    ],
    "samplers" : [
        {
            "magFilter" : 9729,
            "minFilter" : 9987
        }
    ],
    "buffers" : [
        {
            "byteLength" : 1863564,
            "uri" : "data:application/octet-stream;base64,"
        }
    ]
}
