{
    "asset" : {
        "generator" : "Khronos glTF Blender I/O v1.1.45",
        "version" : "2.0"
    },
    "scene" : 0,
    "scenes" : [
        {
            "name" : "Scene",
            "nodes" : [
                0
            ]
        }
    ],
    "nodes" : [
        {
            "mesh" : 0,
            "name" : "pocket_Ushaped",
            "rotation" : [
                0.7071068286895752,
                0,
                0,
                0.7071067094802856
            ],
            "translation" : [
                -0.08116043359041214,
                1.2963228225708008,
                1.0834059715270996
            ]
        }
    ],
    "materials" : [
        {
            "doubleSided" : true,
            "emissiveFactor" : [
                0,
                0,
                0
            ],
            "name" : "Default OBJ.062",
            "pbrMetallicRoughness" : {
                "baseColorFactor" : [
                    0.800000011920929,
                    0.800000011920929,
                    0.800000011920929,
                    1
                ],
                "metallicFactor" : 0,
                "roughnessFactor" : 0.5
            }
        }
    ],
    "meshes" : [
        {
            "name" : "pocket_Ushaped_Poc",
            "primitives" : [
                {
                    "attributes" : {
                        "POSITION" : 0,
                        "NORMAL" : 1,
                        "TEXCOORD_0" : 2
                    },
                    "indices" : 3,
                    "material" : 0
                }
            ]
        }
    ],
    "accessors" : [
        {
            "bufferView" : 0,
            "componentType" : 5126,
            "count" : 609,
            "max" : [
                1.393339991569519,
                0.2184741497039795,
                0.5651760101318359
            ],
            "min" : [
                -1.3197840452194214,
                -0.3607635498046875,
                -0.5290126800537109
            ],
            "type" : "VEC3"
        },
        {
            "bufferView" : 1,
            "componentType" : 5126,
            "count" : 609,
            "type" : "VEC3"
        },
        {
            "bufferView" : 2,
            "componentType" : 5126,
            "count" : 609,
            "type" : "VEC2"
        },
        {
            "bufferView" : 3,
            "componentType" : 5123,
            "count" : 3291,
            "type" : "SCALAR"
        }
    ],
    "bufferViews" : [
        {
            "buffer" : 0,
            "byteLength" : 7308,
            "byteOffset" : 0
        },
        {
            "buffer" : 0,
            "byteLength" : 7308,
            "byteOffset" : 7308
        },
        {
            "buffer" : 0,
            "byteLength" : 4872,
            "byteOffset" : 14616
        },
        {
            "buffer" : 0,
            "byteLength" : 6582,
            "byteOffset" : 19488
        }
    ],
    "buffers" : [
        {
            "byteLength" : 26072,
            "uri" : "pocket_Ushaped.bin"
        }
    ]
}
