{
    "asset" : {
        "generator" : "Khronos glTF Blender I/O v1.1.45",
        "version" : "2.0"
    },
    "scene" : 0,
    "scenes" : [
        {
            "name" : "Scene",
            "nodes" : [
                0
            ]
        }
    ],
    "nodes" : [
        {
            "mesh" : 0,
            "name" : "pocket_Lt-Ushaped",
            "rotation" : [
                0.7071068286895752,
                0,
                0,
                0.7071067094802856
            ],
            "translation" : [
                0.8474459648132324,
                1.2744560241699219,
                1.107061505317688
            ]
        }
    ],
    "materials" : [
        {
            "doubleSided" : true,
            "emissiveFactor" : [
                0,
                0,
                0
            ],
            "name" : "Default OBJ.065",
            "pbrMetallicRoughness" : {
                "baseColorFactor" : [
                    0.800000011920929,
                    0.800000011920929,
                    0.800000011920929,
                    1
                ],
                "metallicFactor" : 0,
                "roughnessFactor" : 0.5
            }
        }
    ],
    "meshes" : [
        {
            "name" : "pocket_Lt-Ushaped_Poc",
            "primitives" : [
                {
                    "attributes" : {
                        "POSITION" : 0,
                        "NORMAL" : 1,
                        "TEXCOORD_0" : 2
                    },
                    "indices" : 3,
                    "material" : 0
                }
            ]
        }
    ],
    "accessors" : [
        {
            "bufferView" : 0,
            "componentType" : 5126,
            "count" : 463,
            "max" : [
                0.46518170833587646,
                0.19373559951782227,
                0.5349903106689453
            ],
            "min" : [
                -0.481717973947525,
                -0.3236202597618103,
                -0.5507125854492188
            ],
            "type" : "VEC3"
        },
        {
            "bufferView" : 1,
            "componentType" : 5126,
            "count" : 463,
            "type" : "VEC3"
        },
        {
            "bufferView" : 2,
            "componentType" : 5126,
            "count" : 463,
            "type" : "VEC2"
        },
        {
            "bufferView" : 3,
            "componentType" : 5123,
            "count" : 2466,
            "type" : "SCALAR"
        }
    ],
    "bufferViews" : [
        {
            "buffer" : 0,
            "byteLength" : 5556,
            "byteOffset" : 0
        },
        {
            "buffer" : 0,
            "byteLength" : 5556,
            "byteOffset" : 5556
        },
        {
            "buffer" : 0,
            "byteLength" : 3704,
            "byteOffset" : 11112
        },
        {
            "buffer" : 0,
            "byteLength" : 4932,
            "byteOffset" : 14816
        }
    ],
    "buffers" : [
        {
            "byteLength" : 19748,
            "uri" : "pocket_Lt-Ushaped.bin"
        }
    ]
}
